<?xml version="1.0" encoding="UTF-8"?>
<svg id="Layer_1" xmlns="http://www.w3.org/2000/svg" version="1.1" xmlns:xlink="http://www.w3.org/1999/xlink" viewBox="0 0 247 235">
  <!-- Generator: Adobe Illustrator 30.2.1, SVG Export Plug-In . SVG Version: 2.1.1 Build 1)  -->
  <defs>
    <style>
      .st0 {
        opacity: .4;
      }

      .st1 {
        fill: none;
      }

      .st2 {
        clip-path: url(#clippath);
      }
    </style>
    <clipPath id="clippath">
      <rect class="st1" x="23.5" y="0" width="199.9" height="234.8"/>
    </clipPath>
  </defs>
  <g class="st0">
    <g class="st2">
      <g>
        <path d="M97.7,173.2c-1.1,0-2.1-.1-3.1-.5-2.1-.6-3.8-2.3-4.4-4.4-.1-.5-.2-1-.3-1.6v-.8c0-.3,0-.5,0-.8,0-2-.3-3.9-.7-5.8-.5-1.9-1.4-3.6-2.5-5.2-1.2-1.6-2.5-3-3.9-4.3-.4-.3-.7-.7-1.1-1s-.7-.6-1.1-.9c-.8-.6-1.5-1.2-2.4-1.9-3.2-2.6-6.2-5.6-8.8-8.8-5.4-6.5-9.4-14.1-11.7-22.2-.3-1-.6-2-.8-3.1l-.6-3.1c-.2-1-.4-2.1-.5-3.2l-.2-1.6c0-.5-.1-1.1-.1-1.6-.1-2.1-.2-4.3,0-6.4,0-1.1,0-2.1.2-3.2s.2-2.1.3-3.1c1-8.4,3.6-16.5,7.4-24,1.9-3.7,4.2-7.3,6.8-10.6,2.6-3.3,5.5-6.3,8.7-9,6.4-5.3,13.7-9.3,21.5-11.9,7.8-2.5,15.9-4,24-4.4,4.1-.2,8.2-.1,12.3.3,4.1.5,8.2,1.4,12.2,2.6,4,1.3,7.9,3.1,11.5,5.2,3.6,2.2,7,4.8,10.1,7.8,1.5,1.5,3,3,4.4,4.7.7.8,1.3,1.7,2,2.5.6.9,1.3,1.7,1.9,2.6,2.4,3.5,4.4,7.2,6.1,11.1,1.7,3.9,3.1,7.9,4.1,12,1.1,4.2,1.7,8.4,1.9,12.7,0,1.1,0,2.2,0,3.3,0,1.1,0,2.2-.1,3.2l-.2,3.1-.3,3.1c-.4,4.2-1,8.3-1.8,12.4-.9,4.2-2.1,8.4-3.8,12.3-1.7,4-4,7.9-6.6,11.3-2.7,3.4-5.7,6.5-9,9.3-3,2.6-6.1,5.1-8.9,7.8-1.4,1.3-2.8,2.6-4,4-1.2,1.2-2.1,2.5-2.9,4-.3.7-.5,1.4-.6,2.1,0,.2,0,.4,0,.6v.8c-.1.7-.3,1.5-.5,2.2-.3.8-.7,1.6-1.3,2.2-.6.7-1.4,1.2-2.2,1.5-.7.3-1.5.4-2.3.5-.4,0-.7,0-1.1,0-.2,0-.3,0-.5,0s-.3,0-.6-.1h.6c-3.9,0-7.9-.2-11.8-.3l-11.8-.4-5.9-.2c-2,0-3.9-.2-5.9-.2s-3.9-.2-5.9-.3c-2,0-3.9-.2-5.8-.4M97.8,172.4c2,.1,3.9.2,5.9.3s3.9,0,5.9,0c3.9,0,7.8-.1,11.7-.3,3.9-.2,7.8-.5,11.7-.8,3.9-.4,7.8-.7,11.7-1.1h.6s0,0,.1,0,.2,0,.2,0c.1,0,.3,0,.4,0,.2,0,.4-.1.6-.2.1-.1.2-.2.2-.3,0-.1,0-.3.1-.4,0-.3,0-.5,0-.8v-.7c0-.3,0-.6,0-.9,0-1.3.2-2.6.6-3.8.8-2.3,1.9-4.4,3.4-6.2,1.3-1.7,2.7-3.3,4.1-4.9.7-.8,1.4-1.5,2.1-2.3l2.2-2.2,2.2-2.1,2.2-2.1c.7-.7,1.4-1.3,2-2,.7-.6,1.3-1.3,1.9-2,.3-.3.6-.7.9-1l.9-1.1.9-1.1c.3-.4.5-.7.8-1.1,2.1-3,3.9-6.2,5.3-9.5,1.4-3.5,2.5-7,3.2-10.7.8-3.7,1.3-7.6,1.8-11.5l.3-2.9.3-2.9c.1-1,.1-1.9.2-2.8,0-.9,0-1.8,0-2.7-.3-7.6-1.8-15-4.6-22-1.4-3.5-3.1-6.9-5.1-10.2-.5-.8-1-1.6-1.5-2.4s-1.1-1.5-1.7-2.3c-1.1-1.5-2.3-3-3.6-4.4-5.1-5.7-11.4-10.2-18.4-13.2-3.6-1.5-7.3-2.6-11.1-3.3-1.9-.3-3.9-.6-5.8-.7h-1.5c0-.1-.7-.2-.7-.2h-.7s-3,0-3,0c-7.9,0-15.8,1.3-23.3,3.8-7.4,2.6-14.2,6.7-19.8,12.3-5.5,5.5-9.7,12-12.6,19.3-1.5,3.6-2.6,7.2-3.5,11-.9,3.7-1.5,7.5-2,11.3-.1,1-.2,1.9-.3,2.9s0,1.9-.1,2.8c-.1,1.9,0,3.8,0,5.7.6,11.5,4,22.7,10.1,32.4,2.1,3.3,4.5,6.4,7.2,9.2.7.7,1.4,1.4,2.1,2.1.4.4.7.7,1.1,1.1s.7.7,1,1.1c1.4,1.5,2.7,3.2,3.7,5,1.1,1.8,1.9,3.8,2.3,5.9.4,2,.5,4.1.5,6.1,0,.3,0,.5,0,.8v.7c0,.5.1.9.2,1.4.2.9.7,1.7,1.3,2.4,1.4,1.3,3.3,2,5.2,1.9"/>
        <path d="M93.5,217.9c-.3,0-.5,0-.8-.1-3.5-1.3-5.6-3.4-6.3-6.3-1-4,1.2-8,2.7-10.1-1.6-2.3-2.2-5.1-1.8-7.9.4-2.3,1.5-4.4,3.2-6-1.6-1.9-2.5-4.3-2.7-6.8-.2-5.7,4-10.2,4.2-10.4.8-.9,2.2-.9,3,0s.9,2.2,0,3h0c0,0-3.2,3.5-3,7.3.2,2.1,1.2,4.1,2.9,5.5.9.8.9,2.1.2,3-.1.1-.3.3-.4.4-1.6,1.2-2.8,2.9-3.2,4.8-.3,1.8.4,3.8,1.9,5.9.6.8.6,1.9,0,2.7-1,1.2-3.5,4.9-2.8,7.6.3,1.3,1.4,2.3,3.2,3.1l52.8-10.5c1-1.6,3-5.9-.2-9-.9-.8-.9-2.2,0-3,0,0,.2-.2.3-.3.8-.6,2.9-2.6,2.9-4.6,0-1.3-.8-2.6-2.4-3.8-.9-.7-1.1-2.1-.4-3,0,0,.1-.2.2-.2.7-.7,2.1-2.5,2-3.8,0-.2-.1-.9-1.4-1.6-1-.6-1.3-1.9-.8-2.9s1.9-1.3,2.9-.8h0c1.9,1,3.2,2.8,3.5,4.9.1,2-.5,4-1.8,5.6,1.5,1.5,2.4,3.6,2.4,5.8-.2,2.4-1.2,4.8-3,6.5,3.3,4.9.8,10.8-1.2,13.5-.3.4-.8.7-1.3.8l-54.3,10.8c-.1,0-.3,0-.4,0"/>
        <path d="M93.5,189.8c-1.2,0-2.1-.9-2.1-2.1,0-1.1.8-2,1.9-2.1l54.9-7c1.2-.1,2.2.7,2.4,1.8.1,1.2-.7,2.2-1.8,2.4l-54.9,7c0,0-.2,0-.3,0"/>
        <path d="M91.7,203.6c-1.2,0-2.1-1-2.1-2.1,0-1,.8-1.9,1.8-2.1l56.2-8.9c1.2-.2,2.2.7,2.4,1.8.2,1.1-.6,2.2-1.7,2.4l-56.2,8.9c-.1,0-.2,0-.3,0"/>
        <path d="M97.1,218.6c13.2,2.4,26.9,2.8,40.2,2,4.9-.3,10.3-1.5,12.9-6.1,2.3-3.8,1-8.8-2.8-11,0,0-.1,0-.2,0-3.1-1.6-5.9,3.1-2.8,4.7,4.5,2.3-1.7,6.2-4.1,6.7-4.3.8-9.1.5-13.5.6-9.5.2-18.9-.5-28.3-2.1-3.5-.6-4.9,4.7-1.5,5.3"/>
        <path d="M101.8,216.8c-6.1,11.2,9.9,19.1,19,18,5-.6,9.6-3,12.9-6.8,3-3.4,4.4-9.6-.8-11.9-3.2-1.4-6,3.3-2.8,4.7,2.7,1.2-2.4,5.3-3.5,6.1-2.3,1.5-4.9,2.4-7.7,2.5-4.3.2-15.8-3.7-12.4-9.9,1.7-3.1-3.1-5.9-4.7-2.8"/>
        <path d="M105.1,172.1c1.3-10.4,2.5-21,.3-31.4-1.1-5.2-3.1-10.1-6-14.5-2.9-4.5-6.3-8.7-7.9-13.9-1.5-5.4-1.7-11.1-.4-16.6.7-3.2,3.1-15.3,8.5-12.5,4.2,2.2,5.9,10,6.4,14.2.6,5.6-.4,11.2-2.8,16.2l2.9-.4c-6.2-7.7-1.2-17.8,3.6-24.7,2.3-3.2,7-9.4,11.7-6.4,3.2,2.1,3.4,7.9,3.9,11.3.8,4.9,1.3,10,.5,15-.2,1.1-.4,2.1-.7,3.2-.3.9-.5,2.6-.6.8,0-2.5.2-5,.7-7.4.8-4.7,2.3-9.3,4.5-13.6,1.7-3.5,4.3-8.6,8.4-9.7,4.7-1.3,7.3,4.1,8.4,7.8,1.9,6.7,1.7,13.8-.5,20.4-.4,1.3-2.1,6.7-3.6,4-.8-1.4-.2-4,0-5.5.3-2.5.7-5,1.3-7.4,1.2-4.5,2.9-8.8,5.2-12.9,1-1.8,2.9-5.9,5.5-4.5,2.1,1.1,2.2,4.5,2.5,6.5,1.3,9.6,2.2,20.3-2.7,29.1-2.4,4.3-6.3,7.2-9.7,10.7-3.1,3.1-5.5,6.8-7.1,10.9-4,10.1-2.9,21.1-1.8,31.7.2,2.3,3.9,2.3,3.7,0-1.5-13.9-2.8-29.6,8.1-40.3,4.4-4.3,8.8-8,11.2-13.7,2.3-5.7,3.3-11.9,2.9-18.1-.1-3.3-.5-6.7-1-10-.4-2.8-.6-5.9-2.5-8.2-3.4-4.3-8-2.5-10.7,1.4-3.4,5.2-5.9,11-7.4,17-1.1,4.4-3.2,11.8-.4,16,2.6,4,6.8,1.5,8.5-1.8,2.6-5.6,3.8-11.8,3.4-18.1-.3-5.2-1.4-11-4.8-15.2-2.9-3.8-8.2-4.6-12.1-2-4.6,3-7.4,8.8-9.5,13.7-2.4,5.8-3.8,12-4,18.2,0,1.9,0,4.3,1.8,5.4,1.7,1,3.9.4,4.8-1.3,0,0,0,0,0,0,3.1-4.6,2.6-12.3,2.1-17.5-.4-3.7-.9-7.3-1.6-10.9-.4-2.5-1.4-4.8-3-6.7-4.2-4.4-10.7-2.2-14.5,1.6-8.3,8.5-15.4,23.3-6.9,33.9.7.7,1.9.7,2.6,0,.1-.1.2-.2.3-.4,4.1-8.3,4.6-18,1.3-26.6-1.4-3.5-3.4-7.8-7.1-9.3-3.3-1.3-6.4.4-8.4,3-2.7,3.7-3.9,8.8-4.8,13.2-.9,4.8-1,9.7-.1,14.5,2,10.2,10.3,17.3,13.4,27,3.6,11.2,2.1,23.4.7,34.8-.3,2.3,3.4,2.3,3.7,0"/>
        <path d="M78.3,62c-8.1,11.9-12,26.2-10.9,40.6.4,4.7,7.7,4.7,7.3,0-1.1-13.1,2.4-26.1,9.9-36.9,2.7-3.9-3.7-7.6-6.3-3.7"/>
        <path d="M91.3,57.5c1.4-1.6,3.2-2.9,5.2-3.8,1.7-1,2.3-3.3,1.3-5-1-1.7-3.3-2.3-5-1.3-2.5,1.2-4.8,2.9-6.6,5-1.4,1.4-1.4,3.7,0,5.2s3.7,1.4,5.2,0h0"/>
        <path d="M37.3,138.5l14.5-5.1c3.3-1.2,1.9-6.5-1.5-5.3l-14.5,5.1c-3.3,1.2-1.9,6.5,1.5,5.3"/>
        <path d="M26.2,102.6l18.9-1.2c3.5-.2,3.5-5.7,0-5.5l-18.9,1.2c-3.5.2-3.5,5.7,0,5.5"/>
        <path d="M32.9,62c5.6.4,11.1,1.6,16.3,3.6,3.3,1.2,4.8-4.1,1.5-5.3-5.7-2.1-11.7-3.3-17.8-3.7-3.5-.3-3.5,5.2,0,5.5"/>
        <path d="M62.1,19.3l7.9,14.6c1.7,3.1,6.4.3,4.7-2.8l-7.9-14.6c-1.7-3.1-6.4-.3-4.7,2.8"/>
        <path d="M108.6,2.7c.5,5.8,2,11.4,4.6,16.6,1.6,3.2,6.3.4,4.7-2.8-2.2-4.3-3.5-9-3.9-13.8-.3-3.5-5.8-3.5-5.5,0"/>
        <path d="M158.7,2.7l-6.3,15.1c-1.4,3.3,4,4.7,5.3,1.5l6.3-15.1c1.4-3.3-4-4.7-5.3-1.5"/>
        <path d="M197.5,24.1c-5,3.1-9.4,7-13.3,11.4-2.3,2.6,1.5,6.5,3.9,3.9,3.5-4.1,7.7-7.6,12.2-10.5,3-1.9.2-6.6-2.8-4.7"/>
        <path d="M220,62.5l-17.6,3.6c-3.5.7-2,6,1.5,5.3l17.6-3.6c3.5-.7,2-6-1.5-5.3"/>
        <path d="M220.8,102.2l-17.6-1.4c-3.5-.3-3.5,5.2,0,5.5l17.6,1.4c3.5.3,3.5-5.2,0-5.5"/>
        <path d="M211.7,138.7l-14.5-6.3c-3.2-1.4-6,3.3-2.8,4.7l14.5,6.3c3.2,1.4,6-3.3,2.8-4.7"/>
      </g>
    </g>
  </g>
</svg>