<?xml version="1.0" encoding="UTF-8"?>
<svg id="Layer_1" xmlns="http://www.w3.org/2000/svg" version="1.1" xmlns:xlink="http://www.w3.org/1999/xlink" viewBox="0 0 247 235">
  <!-- Generator: Adobe Illustrator 30.2.1, SVG Export Plug-In . SVG Version: 2.1.1 Build 1)  -->
  <defs>
    <style>
      .st0 {
        opacity: .4;
      }

      .st1 {
        fill: none;
      }

      .st2 {
        clip-path: url(#clippath);
      }
    </style>
    <clipPath id="clippath">
      <rect class="st1" x="12.8" y="31.5" width="221.4" height="172"/>
    </clipPath>
  </defs>
  <g class="st0">
    <g class="st2">
      <g>
        <path d="M94.4,149.2c24.3-18,49-36.6,72.4-55.3,17-13.7,32.9-29.1,49.6-43.2,5.6-4.8,11.5-9.5,17.3-14.1l-2-1.7c-27.9,48.7-56.6,97.5-81.2,148l5.3-1.5c-4.8-2.7-9.7-5.3-14.6-8-14.9-7.9-31.7-16.3-46.7-24.3M93.6,149.2c13.5,9,29.5,20.2,43,28.9,5,3.3,10.1,6.6,15.3,9.8,1.8,1.1,4.1.5,5.1-1.2,0,0,.1-.2.1-.3,27.9-48.8,52.2-99.9,76.9-150.3.3-.6.1-1.5-.5-1.8-.5-.3-1.1-.2-1.5.1-8.7,7.3-17.4,14.4-26.4,21.3-15.1,11.5-31,23-45.6,35.1-22.7,19-44.8,38.5-66.4,58.3"/>
        <path d="M72.1,136c-13.7-6.7-27.5-13.3-41.3-19.5-4.5-2-9-4.1-13.6-6v6c17.4-6,36.4-12.5,53.6-19.3,35.2-14.4,70.3-29.2,106.7-40.5,15.3-4.9,39.2-12.7,54.2-17.9l-3.3-6.7-19.8,12.2c-46.5,28.7-92.1,59.6-136.5,91.7M72.2,136.8c40.5-22.6,81.4-47.2,120.6-72.3,9.9-6.4,29.9-19.5,39.7-26.1,1.8-1.1,2.3-3.4,1.2-5.2-.9-1.5-2.8-2.2-4.5-1.5-14.8,5.6-38.2,15.1-53,21.2-35.1,14.8-71.5,26.1-107.7,37.7-17.5,5.9-36.3,13.1-53.6,19.9-1.6.7-2.4,2.5-1.8,4.2.3.8,1,1.4,1.8,1.8,6.9,2.7,14.7,5.5,21.7,8.1,11.8,4.2,23.9,8.5,35.7,12.3"/>
        <path d="M72.2,136.4c-4,15.5-6.4,31.3-8.5,47.2-.7,5.3-1.3,10.6-1.8,15.9-.2,2,1.3,3.8,3.4,4,1.4.1,2.8-.6,3.5-1.9,9.4-17,18.3-34.3,25.2-52.4-11.9,15.4-22,32-31.7,48.8l6.9,2.2c.6-5.3,1.1-10.6,1.5-15.9,1.2-15.9,2.1-31.9,1.4-47.9"/>
        <path d="M112.1,159.9c-9.2,4.9-17.3,11.1-25.1,17.8-7.8,6.7-15.2,13.8-21.4,22.1,9.2-4.9,17.3-11.1,25.1-17.8,7.8-6.8,15.2-13.8,21.4-22.1"/>
        <path d="M75,179c2.4-16.6,4.9-33.1,7.3-49.7.2-1.6,2.7-1.5,2.5,0-2.4,16.6-4.9,33.1-7.3,49.7-.2,1.6-2.7,1.5-2.5,0"/>
        <path d="M86.9,158.5c1.5-11.4,3.1-22.8,4.6-34.1.2-1.6,2.7-1.5,2.5,0l-4.6,34.1c-.2,1.6-2.7,1.5-2.5,0"/>
        <path d="M98.7,143.1c.1-8.6,1-17.1,2.8-25.5.3-1.6,2.7-.8,2.4.7-1.7,8.2-2.6,16.5-2.7,24.8,0,.7-.6,1.2-1.3,1.2-.6,0-1.1-.6-1.2-1.2"/>
        <path d="M106.8,137l4-25.7c.2-1.6,2.7-1.5,2.5,0-1.3,8.6-2.7,17.2-4,25.7-.2,1.6-2.7,1.5-2.5,0"/>
        <path d="M122.2,106.8c-.3,7.1-1.3,14.1-3,21-.4,1.5-2.8.8-2.4-.7,1.7-6.7,2.6-13.5,2.9-20.4,0-.7.6-1.2,1.3-1.2.6,0,1.1.6,1.2,1.2"/>
        <path d="M124.6,121.9c1-7.3,2-14.5,3-21.8.2-1.6,2.7-1.5,2.5,0-1,7.3-2,14.5-3,21.8-.2,1.6-2.7,1.5-2.5,0"/>
        <path d="M131.4,116c1-6.4,2.1-12.8,3.1-19.2.2-.7.9-1,1.5-.8.6.2,1,.9.8,1.5-1,6.4-2.1,12.8-3.1,19.2-.2.7-.9,1-1.5.8-.6-.2-1-.9-.8-1.5"/>
        <path d="M139.5,111c.3-6.2,1.2-12.4,2.8-18.5.4-1.5,2.8-.8,2.4.7-1.5,5.8-2.4,11.8-2.7,17.8,0,.7-.6,1.2-1.3,1.2-.7,0-1.2-.6-1.2-1.2"/>
        <path d="M147.2,104c.2-5.6,1-11.2,2.3-16.7.4-1.6,2.7-.8,2.4.7-1.2,5.3-2,10.6-2.1,16,0,.7-.6,1.2-1.3,1.2-.6,0-1.1-.6-1.2-1.2"/>
        <path d="M154.9,97.8c.6-4.9,1.2-9.7,1.8-14.6,0-.7.6-1.2,1.3-1.2.7,0,1.2.6,1.2,1.3-.6,4.9-1.2,9.7-1.8,14.6,0,.7-.6,1.2-1.3,1.2-.7,0-1.2-.6-1.2-1.3"/>
        <path d="M162.4,91.6c.3-4.5.7-9,1-13.5.1-1.6,2.6-1.5,2.5,0-.3,4.5-.7,9-1,13.5-.1,1.6-2.6,1.5-2.5,0"/>
        <path d="M167.8,86.3c.4-4,.8-8,1.3-12,0-.7.6-1.2,1.3-1.2.7,0,1.2.6,1.2,1.3-.4,4-.8,8-1.3,12,0,.7-.6,1.2-1.3,1.2-.7,0-1.2-.6-1.2-1.3"/>
        <path d="M174.2,81.4l1.1-10.6c0-.7.6-1.2,1.3-1.2.7,0,1.2.6,1.2,1.3l-1.1,10.6c0,.7-.6,1.2-1.3,1.2-.7,0-1.2-.6-1.2-1.3"/>
        <path d="M179.5,75.8l1.5-7.9c.2-.7.9-1,1.5-.8.6.2,1,.9.8,1.5-.5,2.6-1,5.3-1.5,7.9-.2.7-.9,1-1.5.8-.6-.2-1-.9-.8-1.5"/>
      </g>
    </g>
  </g>
</svg>