<?xml version="1.0" encoding="UTF-8"?>
<svg id="Layer_1" xmlns="http://www.w3.org/2000/svg" version="1.1" xmlns:xlink="http://www.w3.org/1999/xlink" viewBox="0 0 247 235">
  <!-- Generator: Adobe Illustrator 30.2.1, SVG Export Plug-In . SVG Version: 2.1.1 Build 1)  -->
  <defs>
    <style>
      .st0 {
        fill: none;
      }

      .st1 {
        clip-path: url(#clippath);
      }

      .st2 {
        opacity: .3;
      }
    </style>
    <clipPath id="clippath">
      <rect class="st0" x="32.5" y="9.6" width="181.9" height="215.9"/>
    </clipPath>
  </defs>
  <g class="st2">
    <g class="st1">
      <g>
        <path d="M111.3,19.1c-25.2,2-49.2,16.1-61.8,38.1-12.2,22.1-13.8,48.6-4.2,72,7.2,16.5,20.1,29.8,36.4,37.5,1.7.8,3.5,1.6,5.3,2.3.9.3,2.7.9,3.6,1.3,1.1.4,4.3,1.3,5.5,1.6,1.7.4,3.9.8,5.6,1.2,8.1,1.3,16.4,1.2,24.5-.2,2.1-.3,4.3-1,6.4-1.4.4-.2,3.9-1.2,4.5-1.4,1.2-.4,2.3-.9,3.5-1.3,14.6-5.5,27.3-15.1,36.5-27.7.8-1,2.3-3.6,3-4.6.9-1.4,1.8-3.3,2.7-4.8.8-1.7,1.5-3.3,2.3-5,.2-.6,1.4-3.7,1.6-4.3.6-2,1.3-4.1,1.8-6.2l.8-3.6c.3-2.1.9-5.2,1.1-7.3,0-1,.3-2.6.3-3.7v-3.7c.2-1.1,0-2.6,0-3.7v-1.8c-.1-.9-.3-2.8-.4-3.7,0-1.7-.7-4.7-.9-6.4-.5-2-.8-4.3-1.5-6.3-1-3.6-2.2-7-3.7-10.4-.2-.5-.9-2-1.1-2.5-13-26.4-41.3-43.3-71.1-43.1v-.8c7.8-1,15.7-.7,23.5.8,18.5,3.7,35.2,13.8,46.9,28.7,1.7,2.1,3.2,4.4,4.7,6.6.7,1.3,2.4,4,3,5.3,1.5,3,2.9,6.1,4.1,9.3.7,2.3,1.8,5.5,2.3,7.8.2.7.6,2.3.7,3,.2,1.4.8,4.7,1,6,.2,2.2.6,4.9.6,7.1.4,8.2-.5,16.3-2.6,24.2-.5,2.3-1.4,4.6-2.1,6.8-.2.6-1.6,4.1-1.9,4.7-.8,1.9-1.7,3.7-2.6,5.5-1,1.6-2,3.7-3.1,5.3-.8,1.2-2.6,4-3.5,5-.6.8-1.9,2.4-2.5,3.2-8.3,9.8-18.8,17.6-30.6,22.7-22.6,9.7-47.4,8.5-69.3-2.5-21.1-10.7-38.6-29.6-45.1-52.7-10.8-37.3,8.1-78.7,44.8-92.7,9.8-4,20.4-5.7,30.9-5.1v.8Z"/>
        <path d="M152.2,26c2.6-4.3,5.1-8.7,7.7-13l-3.1.8,4.2,2.2-.8-3.1c-1.1,1.9-2.1,3.8-3.1,5.6-.5.9-.9,1.8-1.4,2.6-.3.6-.6,1.2-1,1.7l-.4.5c-.7.4-.7.8,0,1.4.4-2.9-4-4.1-4.4-1.2-.7,4.9,5,6.3,7.9,2.9,2.7-3.1,4.4-7.7,6.4-11.3.6-1.1.3-2.5-.8-3.1l-4.2-2.2c-1.1-.6-2.5-.2-3.1.8-2.6,4.3-5.1,8.7-7.7,13-1.5,2.5,2.4,4.8,4,2.3"/>
        <path d="M73.3,164.9c-2.2,4.1-4.7,8.1-6.8,12.3-.6,1.1-.2,2.5.8,3.1,1.9,1.4,4.5,3.6,7.1,3.4,1.5-.1,2.2-1.4,3-2.6,2.4-3.3,5.2-6.8,6.4-10.7.3-1-.2-2.1-1.1-2.6l-7.1-3.8c-2.6-1.4-4.9,2.6-2.3,4l7.1,3.8-1.1-2.6c-1.3,4-4.5,7.7-7,11l2-1.1c-1.7-.1-3.4-1.8-4.8-2.7l.8,3.1c2.2-4.1,4.7-8.1,6.8-12.3,1.4-2.6-2.6-4.9-4-2.3"/>
        <path d="M111.1,20.4c5.6,3.7,12.3,9.9,8.4,17.2-2.2,4.2-7.4,6.8-7.4,11.9-.1,1.2.4,2.3,1.4,3,2.5,1.9-1.8,4.2-3.4,4.7-2.6.7-5.4.8-8.1,0-3.4-.7-7-2.3-10.3-2.2-6.5-.1-8.2,7.2-5.8,12.1,2.3,4.6,6.8,7.6,11.1,10.4l-1.5-.3c5.6-1.1,11.3,2.5,13.4,7.7.7,1.7,1,3.6.7,5.5l-2.5-1.7c7.3-3.5,16.5,1.1,17.3,9.3.5,3.7-.7,7.4-3.4,10.1-1.5,1.5-3,2.9-3.1,5.1-.2,5.9,6,8.4,10.8,9.8.4.1.6.5.4.9,0,0,0,0,0,0-1.4,3-4.6,4.8-7.9,4.6l.7-1c.7,1.9-.2,4-2.1,4.7-.1,0-.3,0-.4.1l.3-1.3,6.8,5.1c.4.3.4.8.2,1.1,0,0,0,0,0,0-1.6,2-3.2,4.1-4.8,6.2-.2.3-.6.4-.9.3-5.4-.8-10.7-1.6-16.1-2.4l1.4-.9c-1.3,4.6-.9,9.6,1.3,13.9.4.8,0,1.8-.7,2.2-.3.2-.7.2-1.1.1l-11.9-2.2c-.7-.1-1.2-.6-1.4-1.3l-2.2-7.4,3.7.4-4.1,8.1c-.4.9-1.4,1.3-2.4,1.1-.3,0-5-1.2-5.2-1.3-1.1-.6-2.1-1.6-2.7-2.8-1.3-3.1-1-6.8,1-9.6,1.1-1.6,2.5-3,4-4.2,2.5-2.1,5.1-3.6,6.2-6.6,1.9-5.1-2.8-5.4-6.7-5.7-8.4-.5-15.1-7.3-15.6-15.7-.3-8.3,6.7-15.9,14.9-16.4,1.2,0,2.3.8,2.4,2.1,0,.9-.4,1.7-1.2,2.1-3,1.7-6.7-.5-7.8-3.4-1.7-3.8.8-7.8,2.2-11,.6-1.7,1.2-3.8-.2-5.1-1.6-1.2-4.4-.5-6.6-.6-7.4,0-6.7-7.9-10.6-3.8-1.4,1.6-3.3,3.2-5.5,3.6-4.4,1-9.5-1.3-11-5.7l1.8-.3c-.1,3.4-1.2,6.7-3.1,9.6-1.8,2.8-4.4,5.1-7.4,6.5-.1,0-.3,0-.3-.1,0-.1,0-.2,0-.3,5.5-3.3,8.9-9.3,8.9-15.7,0-.5.4-1,.9-1,.4,0,.7.2.9.6h0c1.5,3.7,6.7,5.3,10.1,3.3,1-.7,1.8-1.5,2.5-2.5,1.9-2.3,4.8-3.2,7.2-1,1.2.9,1.9,2.2,3,2.8.8.4,1.6.5,2.5.5,1.9-.2,3.8-.2,5.7-.1,5.6.8,6.6,6.3,4.8,10.8-.9,2.4-2.4,4.5-2.3,6.9,0,.7.4,1.3.9,1.7.3.3.7.5,1,.4l1.3,4.2c-2.9.4-5.5,1.8-7.4,4-5.3,5.9-2.8,14.5,4.1,17.8,3.1,1.4,6.3.8,9.8,1.8,6.7,2,7.3,9.2,3.5,14.2-2.2,3-5.5,4.7-8,7.1-1.8,1.6-3.2,4.4-2.2,6.8.2.4.5.7.9,1l-.5-.2,4.7,1.2-2.4,1.1,4.3-8.1c.5-1,1.7-1.3,2.7-.8.5.3.8.7,1,1.2l2,7.4-1.4-1.3,11.8,2.7-1.8,2.3c-2.3-5.1-2.6-10.8-.8-16.1.2-.6.8-1,1.4-.9,5.3,1,10.7,2.1,16,3.1l-.9.3c1.7-2,3.3-4,5-6v1.2c.1,0-6.6-5.3-6.6-5.3-.3-.3-.4-.7-.1-1,.1-.1.3-.2.4-.3,1.2-.3,1.8-1.5,1.5-2.7,0,0,0,0,0-.1-.2-.4,0-.8.4-.9,0,0,0,0,0,0,.1,0,.2,0,.3,0,2.7.2,5.3-1.3,6.5-3.8l.4,1c-2.2-.6-4.3-1.5-6.4-2.5-2.7-1.4-4.7-3.9-5.5-6.8-1.2-5.3,3-6.8,4.9-10.7,1.7-3.7.9-8.1-2-11-2.9-2.6-7.2-3.2-10.7-1.4-.8.4-1.9.1-2.3-.7-.2-.3-.2-.7-.2-1,.1-1.3-.1-2.5-.7-3.6-.6-1.2-1.3-2.2-2.3-3.1-1.8-1.7-4.4-2.5-6.9-2-.5.1-1.1,0-1.5-.3-6.5-4-14.1-9.7-13.9-18.3,0-4.4,2.2-9.1,6.6-10.7,3.9-1.5,8.4-.3,12,.9,3.8,1.2,9.1,2.9,12.3-.1l.3,2.4c-3.8-2.4-3-7.9-.8-11,1.9-2.7,4.9-4.7,6.6-7.5,2.8-4.3,0-9.2-3.3-12.5-1.1-1.2-2.4-2.3-3.7-3.4,0,0-.1-.2,0-.3,0,0,.2-.1.3,0"/>
        <path d="M170.8,43.2c2,2.9,1.3,6.8-1.5,8.8-.5.4-1.1.7-1.7.9-2.8.8-5.9-.2-7.7-2.5-.8-1.2-1.3-2.3-1.8-2.9-.4-.5-1-.7-1.7-.6-1.7.4-3.4,2.3-4.7,3.6-5.8,5.9-11.6,11.8-17.7,17.3v-2.8c1.6,1.5,3.1,3.2,4.4,5,3.8,5.5,5.6,12.2,5,18.9l-1.5-.4c2.6-4.3,7.5-7.9,12.7-6.9,5.5,1,8.6,9.6,3.5,13.1l-1-2.2c1.7-.7,3.5-1.1,5.4-1.4,2.2-.3,4.4.3,6.1,1.6,2.6,2.1,3.6,6.8.6,9.1-1.2.8-2.6,1.3-4.1,1.4-1.6.2-2.5.2-3.5,1.2-1.1,1.1-2.1,3.8-3.1,5.5-1.5,2.6-4.2,4.2-7.1,4.3-1.7,0-3.2-.9-4.1-2.4l4.3-2c2.4,5.8,8.6,9,14.8,7.8,1.3-.3,2.5.5,2.8,1.8.2,1-.3,2.1-1.2,2.6-3.5,1.9-5.9,5.3-6.6,9.2v-.5c.3,3.3-4.2,4.4-6.1,2-1-1.3-.7-3.8,1.2-3.9,5.8-.3,11.5-.6,17.3-.8.5,0,1,.3,1.2.9.6,2.4,1.1,4.9,1.7,7.3.6,2.4,1.1,4.9,1.6,7.3,0,.1,0,.2-.2.3-.1,0-.2,0-.3-.1-1.8-4.7-3.5-9.4-5.2-14.1l1.3.9c-5.7.8-11.3,1.5-17,2.2l1.7-1.6c0-.3,0-.6-.2-.9,0,0,0-.1-.2-.2-.2-.1-.2-.1-.2-.1,0,0,0,0-.2,0-.4.2-.6.6-.5,1.1.5-5.5,3.6-10.4,8.4-13.2l1.8,4.4c-2.1.5-4.2.6-6.3.3-6.4-.9-11.7-5.2-14-11.2-.4-1.2.2-2.5,1.5-2.9.7-.2,1.5-.1,2.1.4.3.2.5.4.7.6,0,0,0,0,0,0,0,0,0,0,0,0,1.4-.1,2.6-.9,3.3-2.1,1.2-2,2-4.2,3.8-6,.9-.9,2-1.5,3.1-1.8,1-.2,2-.4,3-.4,1.2-.1,2.1,0,2.6-1,.2-1.1-.1-2.2-.9-3-1-.9-2.3-1.3-3.7-1.2-1.7,0-3.4.4-5,.8-.6.2-1.3-.2-1.4-.9-.1-.5.1-1.1.6-1.3,3.8-2.3,1.2-8.8-2.6-9.5-4.5-1.1-9,2.3-11,6.2-.2.4-.7.5-1.1.3-.3-.1-.4-.4-.4-.7,0-2.1-.1-4.1-.6-6.2-1.4-5.9-4.9-11.2-9.8-14.8-.8-.6-1-1.8-.4-2.6,0,0,.2-.2.2-.3,3.3-3.4,6.6-6.8,10-10,2.4-2.4,5.2-5,7.7-7.3,2-1.8,4-3.9,6.9-4.2,3.8-.4,4.9,2.4,6.3,5.2,1.4,2.2,4.3,2.8,6.5,1.4.3-.2.6-.4.8-.7,1.4-1.7,1.8-4,.8-6,0-.1,0-.3,0-.3.1,0,.2,0,.3,0"/>
        <path d="M116.9,194c-4.9,0-9.8-.3-14.7-.9-17.4-2.2-29.1-7.4-29.6-7.7-2.2-1-3.1-3.6-2.1-5.8,1-2.1,3.5-3.1,5.7-2.1,8.8,3.6,18,5.9,27.4,7,21.5,2.7,41.3-.8,58.9-10.4,21.7-11.8,35.5-29.3,40.9-51.9,4.9-20.6,1.6-40.2-.8-50-2.6-10.8-9.2-23.2-18.1-34.2-8-9.9-17.1-17.5-23.7-19.9-2.2-.9-3.4-3.4-2.5-5.6.8-2.2,3.2-3.3,5.5-2.6,8.1,2.9,18.4,11.4,27.5,22.6,9.8,12.1,16.8,25.4,19.8,37.6,2.6,10.6,6.2,31.7.8,54.1-6,25.1-21.2,44.5-45.2,57.5-15.3,8.2-32.3,12.4-49.7,12.3"/>
        <path d="M111.4,191.9c1.1,2.6,1.7,5.4,1.8,8.3.2,2.8-.2,5.7-1.2,8.4l-.9-1c2.9.4,5.9.3,8.8-.3l-.9.9c-.8-4.9-1.1-9.9-.9-14.9,0-.3,0-1.1,0-1.3,0-.1,0-.1,0,0s.2.1.2,0-.1,0-.4-.1h-.8c-2.2-.2-4.5-.5-6.7-1,0,0-.2-.1-.1-.2,0,0,0-.1.1-.1,2.1-.7,4.3-1.2,6.5-1.6.7-.2,1.4-.2,2.1-.1,2.8.6,2.5,3.9,2.6,6.1,0,4.5-.4,9-1.1,13.5,0,.4-.4.7-.8.6-1.5-.2-2.9-.2-4.4-.2-1.5,0-2.9.2-4.4.5-.4,0-.8-.2-.9-.6,0,0,0,0,0-.1v-.3c-.3-4.1-.2-8.2.3-12.2.1-1.4.3-2.7.6-4.2,0-.1.1-.2.2-.1,0,0,.1,0,.1.1"/>
        <path d="M148.2,215.6c-5.8.8-11.7,1.3-17.6,1.6-5.9.2-11.8.4-17.6.1s-11.8-1-17.6-1.2c-4.4-.1-8.8,0-13.2.2h-.3s-.1,0-.1,0h0c-2-2-.6-.6-1-1-.2-4.5,3.4-8.3,7.9-8.6,12.4-.6,24.8-1,37.2-.5,4.1.2,9.2.4,13.2.7,1.6,0,3.2.2,4.7.7,3.2,1.1,5.1,4.3,4.8,7.6h0c-.1.1.2-.2-.2.3M148.2,215.1c-.5.4-.1.1-.2.2h0s0,0,0,0h0c0-.1,0-.4,0-.4-.5-2.6-2.7-4.7-5.4-5-1.2,0-2.4,0-3.6.2-2.5.2-6.2.4-8.8.5-13.6.7-27.2.4-40.8-.3h-.6s-.3,0-.3,0c-3-.2-5.6,2.1-5.9,5.1h0c-.4-.4,1,1-1-.9,4.6.3,9.1.4,13.7.3,5.9-.1,11.8-.9,17.6-1.2s11.8-.1,17.6.1c5.9.2,11.8.7,17.6,1.6"/>
        <path d="M167,224.1c-16.9.9-33.9,1.3-50.9,1.3-17.4-.3-34.6-1.4-51.9-.7h-.7s0-.7,0-.7c0-3-.2-6.1-.3-9.1h1c25.5-.9,51.5-1.3,77-.6,8.8.2,17.6.5,26.3,1v.6c-.1,2.5-.4,5.8-.5,8.3M166.7,223.9c-.1-2.7-.4-5.4-.5-8l.6.6c-8.6.4-17.1.7-25.7.9-21.2.6-43,.3-64.2-.2-4.3-.1-8.6-.3-12.8-.4l1-1c0,2.7-.2,5.4-.3,8.1l-.7-.7c16.9.6,33.9-.4,50.7-.7,17.3,0,34.5.5,51.8,1.3"/>
        <path d="M47.8,74.4c8-12.8,16.5-25.3,25.5-37.4,2.6-3.4,5.2-6.9,7.8-10.2.6-.8-.5-1.9-1.1-1.1-9.4,12-18.3,24.4-26.7,37.2-2.4,3.6-4.7,7.2-6.9,10.8-.5.8.8,1.6,1.3.8"/>
        <path d="M37.9,79.9c6.8-13.4,14.9-26.1,24-38,2.6-3.4,5.3-6.7,8-9.9.6-.7-.4-1.8-1.1-1.1-9.8,11.5-18.6,24-26.2,37.1-2.1,3.7-4.1,7.4-6.1,11.2-.4.9.9,1.6,1.3.8"/>
        <path d="M54.8,75.6c4.6-7,9.3-14,14.1-20.9,4.8-6.9,9.6-13.7,14.5-20.5,2.8-3.8,5.6-7.6,8.4-11.4.6-.8-.7-1.6-1.3-.8-5,6.7-10,13.5-14.9,20.4-4.8,6.8-9.6,13.7-14.3,20.6-2.7,3.9-5.3,7.9-7.9,11.8-.5.8.8,1.6,1.3.8"/>
        <path d="M66.1,71.4c9.3-13.5,18.9-26.9,28.7-40.1,2.8-3.7,5.6-7.5,8.4-11.2.6-.8-.7-1.5-1.3-.8-9.9,13.1-19.6,26.4-29.1,39.8-2.7,3.8-5.3,7.6-8,11.4-.6.8.8,1.6,1.3.8"/>
        <path d="M74,75.1c3.5-3.4,6.6-7.3,9.2-11.5.5-.8-.8-1.6-1.3-.8-2.5,4.1-5.5,7.8-8.9,11.2-.7.7.4,1.8,1.1,1.1"/>
        <path d="M88.4,53.7c6-8.9,12.2-17.7,18.8-26.2,1.8-2.4,3.7-4.7,5.6-7.1.6-.8-.5-1.8-1.1-1.1-6.8,8.4-13.3,17-19.4,25.9-1.8,2.5-3.5,5.1-5.2,7.7-.5.8.8,1.6,1.3.8"/>
        <path d="M96.6,53.9c6.3-6,12-12.7,17-19.8,1.4-2,2.8-4.1,4.1-6.2.5-.8-.8-1.6-1.3-.8-4.6,7.3-9.9,14.1-15.7,20.4-1.7,1.8-3.4,3.5-5.1,5.2-.7.7.4,1.8,1.1,1.1"/>
        <path d="M82.6,76.3l3.4-3.4c.3-.3.3-.8,0-1.1s-.8-.3-1.1,0h0l-3.4,3.4c-.3.3-.3.8,0,1.1s.8.3,1.1,0h0"/>
        <path d="M80.2,92.1l11-15.7c.6-.8-.8-1.6-1.3-.8l-11,15.7c-.6.8.8,1.6,1.3.8"/>
        <path d="M72.6,115c3.9-4.1,7.4-8.6,10.4-13.5,1.5-2.4,2.9-4.9,4.1-7.5,1.2-2.4,2.1-4.9,3.2-7.3,1.1-2.5,2.6-4.9,5-6.2.9-.5,0-1.8-.8-1.3-4.6,2.5-6,8.1-8.1,12.5-2.4,5.2-5.3,10.2-8.7,14.8-2,2.6-4.1,5.1-6.3,7.5-.7.7.4,1.8,1.1,1.1"/>
        <path d="M79.5,120.9l17.3-31,4.9-8.8c.5-.9-.8-1.6-1.3-.8l-17.3,31-4.9,8.8c-.5.9.8,1.6,1.3.8"/>
        <path d="M88.9,123.6c4-9.3,8.8-18.3,14.2-26.9,1.6-2.4,3.2-4.8,4.8-7.2.6-.8-.8-1.6-1.3-.8-5.8,8.3-11,17.1-15.5,26.3-1.3,2.6-2.5,5.2-3.6,7.9-.4.9.9,1.7,1.3.8"/>
        <path d="M95.1,127.9c1.6-5.2,4-10.1,7-14.6,3.1-4.8,6.5-9.3,9.8-14l6.1-8.4c.6-.8-.7-1.6-1.3-.8-3.6,5-7.2,10-10.8,15-3.3,4.4-6.2,9-8.8,13.8-1.4,2.7-2.6,5.6-3.4,8.6,0,.4.2.8.6.9.4,0,.8-.1.9-.5"/>
        <path d="M87.4,153.7c4.2-7.8,8.5-15.4,13-23,4.5-7.6,9.1-15.1,13.9-22.5,2.7-4.2,5.4-8.3,8.2-12.4.6-.8-.8-1.6-1.3-.8-4.9,7.3-9.7,14.7-14.4,22.1-4.7,7.5-9.2,15-13.5,22.7-2.4,4.3-4.8,8.6-7.2,13-.5.9.9,1.6,1.3.8"/>
        <path d="M94.9,151.4l17.7-28.6,5-8c.5-.8-.8-1.6-1.3-.8l-17.7,28.6-5,8c-.5.8.8,1.6,1.3.8"/>
        <path d="M109.2,140.8l12.5-19.7c.5-.8-.8-1.6-1.3-.8l-12.5,19.7c-.5.8.8,1.6,1.3.8"/>
        <path d="M117.4,142.2l5.1-7.8c.5-.8-.8-1.6-1.3-.8l-5.1,7.8c-.5.8.8,1.6,1.3.8"/>
        <path d="M139.4,72.4l17.2-26.2c.5-.8-.8-1.6-1.3-.8l-17.2,26.2c-.5.8.8,1.6,1.3.8"/>
        <path d="M143.9,83.2l6.5-13.9c2-4.3,4-8.7,6.3-12.9,1.3-2.3,2.7-4.6,4.2-6.8.6-.8-.8-1.6-1.3-.8-5.5,8-9.3,17-13.4,25.8l-3.7,7.8c-.4.9.9,1.7,1.3.8"/>
        <path d="M152.5,81.6c4.2-8.1,8.7-16,13.4-23.8,1.3-2.2,2.7-4.5,4-6.7.5-.8-.8-1.6-1.3-.8-4.8,7.8-9.4,15.6-13.7,23.6-1.2,2.3-2.5,4.6-3.7,6.9-.5.9.9,1.6,1.3.8"/>
        <path d="M159,84.2l15.9-26,4.5-7.4c.5-.8-.8-1.6-1.3-.8l-15.9,26-4.5,7.4c-.5.8.8,1.6,1.3.8"/>
        <path d="M164.1,91.9c3.9-9.7,13.1-16,17.9-25.3,1.3-2.5,2.2-5.3,2.6-8.1,0-.4-.4-.8-.8-.8-.4,0-.8.3-.8.8-.7,5.1-3.4,9.6-6.4,13.6-3.1,4.1-6.7,7.8-9.8,11.9-1.7,2.3-3.1,4.8-4.2,7.5-.4.9,1.1,1.3,1.5.4"/>
        <path d="M159,119.3l23.9-39.4,6.7-11.1c.2-.4,0-.8-.3-1-.4-.2-.8,0-1,.3l-23.9,39.4-6.7,11.1c-.2.4,0,.8.3,1,.4.2.8,0,1-.3"/>
        <path d="M161.7,129.4c8.7-12.4,16.7-25.3,23.8-38.6,2-3.8,4-7.6,5.9-11.5.4-.9-.9-1.7-1.3-.8-6.7,13.6-14.2,26.7-22.5,39.4-2.4,3.6-4.8,7.2-7.2,10.7-.6.8.8,1.6,1.3.8"/>
        <path d="M170,129.7c6.8-10,13.2-20.2,19.3-30.6,1.7-3,3.4-5.9,5.1-8.9.2-.4,0-.8-.3-1-.4-.2-.8,0-1,.3-5.9,10.5-12.1,20.8-18.7,31-1.9,2.9-3.8,5.7-5.7,8.5-.6.8.8,1.6,1.3.8"/>
        <path d="M177.1,136.1l16.3-27.8c.2-.4,0-.8-.3-1-.4-.2-.8,0-1,.3l-16.3,27.8c-.2.4,0,.8.3,1,.4.2.8,0,1-.3"/>
      </g>
    </g>
  </g>
</svg>