<svg xmlns="http://www.w3.org/2000/svg" width="177.789" height="145.529" viewBox="0 0 177.789 145.529"><g transform="translate(0 -0.001)"><path d="M176.167,72.287a28.348,28.348,0,0,0-4.607-8.413,28.012,28.012,0,0,0-7.231-6.36c-.685-.423-1.663-.967-2.735-1.54.469-.267.886-.515,1.216-.726a23.184,23.184,0,0,0,5.922-5.4,23.712,23.712,0,0,0,3.725-7.121,26.936,26.936,0,0,0,1.282-8.377A33.318,33.318,0,0,0,171.8,22.608a28.874,28.874,0,0,0-5.392-9.029A32.072,32.072,0,0,0,158.445,7.1,47.5,47.5,0,0,0,148.9,2.938,60.044,60.044,0,0,0,138.363.671,87.2,87.2,0,0,0,127.673,0c-3,0-6.154.162-9.364.483-3.193.319-6.442.792-9.663,1.406s-6.43,1.39-9.53,2.3C96.362,5,93.7,5.911,91.2,6.9l-2.505.991.036,23.733A2.453,2.453,0,0,1,87.5,33.716l-.012.008c-.842.511-2.444.849-2.444.627a33.31,33.31,0,0,0-1.935-11.742,28.859,28.859,0,0,0-5.392-9.029A32.094,32.094,0,0,0,69.753,7.1,47.49,47.49,0,0,0,60.2,2.938,60.032,60.032,0,0,0,49.67.671,87.172,87.172,0,0,0,38.981,0c-3,0-6.154.162-9.365.483-3.192.319-6.441.792-9.663,1.406s-6.432,1.39-9.531,2.3C7.669,5,5,5.911,2.506,6.9L0,7.892l.151,96.493,2.274,1.066a56.712,56.712,0,0,0,8.3,3.108,85.4,85.4,0,0,0,9.69,2.2c.72.12,1.457.234,2.207.34-.005.684-.01,1.368-.021,2.053q-.028,3.211-.042,6.224l-.056,11.94q-.013,3.016-.014,6.2v3.958H43.372v-12.1q.561-.063,1.123-.14a31.223,31.223,0,0,0,5.117-1.149A25.149,25.149,0,0,0,54.419,126c.046-.026.089-.057.134-.083a17.362,17.362,0,0,0,2.042-1.375l-.47,20.993,27.039-2.12.4-4.206,16.184,1.586,1.464-6.614h.124l1.78,6.7,17.314-2.234-.119,5.561,0,.159h22.407l-.461-18.642L150.8,111.75l.783,0h7.906v-4.4c0-.02,0-.038-.006-.058l.113-.043a34.358,34.358,0,0,0,9.169-5.351,25.477,25.477,0,0,0,6.542-8.183,25.168,25.168,0,0,0,2.48-11.487,30.233,30.233,0,0,0-1.622-9.941M57.981,116.247a11.84,11.84,0,0,1-2.212,3.66,12.927,12.927,0,0,1-3.3,2.645,21.093,21.093,0,0,1-4.05,1.753,27.119,27.119,0,0,1-4.467,1,36.307,36.307,0,0,1-4.538.348v11.857H26.445q0-3.173.014-6.179t.027-5.971q.014-2.964.028-5.97t.042-6.207c.03-1.859.037-3.719.03-5.579,0-.4,0-.808,0-1.212q-.028-3.4.139-6.848a51.774,51.774,0,0,1,7.126-1.586,50,50,0,0,1,7.348-.529,26.685,26.685,0,0,1,4.287.348,20.771,20.771,0,0,1,4.105,1.1,18.29,18.29,0,0,1,3.646,1.879,12.563,12.563,0,0,1,2.908,2.686A12.392,12.392,0,0,1,58,106.818c.024.064.052.123.075.188a14.465,14.465,0,0,1-.1,9.241m21.557,23.478-19.358,1.518.785-35.041.105-4.707H75.544l-2.06,25.552,7.222.319Zm26.511-3.215-1.67-6.291H98.032L96.64,136.51l-14.2-1.392,10.35-34.639.728-2.436L109,97.264l2.873,9.915,7.983,27.549Zm43.493-30.281-11.276,18.425.39,15.754H124.349l.334-15.643L116.27,107.71l-1.774-3.6,14.2-1.782,2.193,5.922,2.261,6.1,2.531-6.285,2.312-5.74,13.36.947Zm22.24-14.307a21.563,21.563,0,0,1-5.528,6.921,30.454,30.454,0,0,1-8.118,4.729c-.979.39-1.981.746-2.992,1.085l2.979-4.868-22.729-1.611-2.094,5.2-1.987-5.366-17.345,2.177-2.039-7.036-10.834.546.086.911-8.393.789-12.9,1.213-6.044.568-.023-.251L57.2,97.539l-.028,1.276a16.956,16.956,0,0,0-1.736-1.347A22.353,22.353,0,0,0,51,95.183a24.772,24.772,0,0,0-4.887-1.31,30.768,30.768,0,0,0-4.921-.4,54.16,54.16,0,0,0-7.93.572A55.746,55.746,0,0,0,25.6,95.753l-2.691.8-.135,2.8c-.115,2.365-.163,4.743-.144,7.069,0,.222,0,.447,0,.669-.522-.078-1.045-.154-1.564-.24a81.593,81.593,0,0,1-9.241-2.1A52.625,52.625,0,0,1,4.1,101.867L3.962,10.58c2.383-.943,4.927-1.815,7.577-2.594C14.515,7.114,17.6,6.37,20.7,5.777S26.933,4.73,30.01,4.422s6.1-.463,8.971-.463a83.207,83.207,0,0,1,10.2.64A56.093,56.093,0,0,1,59.02,6.714a43.627,43.627,0,0,1,8.753,3.815,28.171,28.171,0,0,1,6.986,5.678,24.928,24.928,0,0,1,4.65,7.8,29.4,29.4,0,0,1,1.68,10.344c0,.748-.042,1.48-.105,2.2.01.009.021.016.032.026a13.516,13.516,0,0,1,3.668,5.6,28.739,28.739,0,0,1,.821,2.909,2.193,2.193,0,0,1-.28,1.78,2.278,2.278,0,0,1-1.617.934,17.536,17.536,0,0,1-2.347.157,17.169,17.169,0,0,1-3.5-.359c-.287-.06-.552-.142-.824-.215-.012.016-.023.034-.035.049a19.271,19.271,0,0,1-4.917,4.477c-1.931,1.235-7.675,4.12-7.675,4.12s6.8,3.341,9.25,4.849a24.072,24.072,0,0,1,6.214,5.46,24.416,24.416,0,0,1,3.962,7.243,23.92,23.92,0,0,1,.688,2.449l8.332-.783-.018-11.444a8.152,8.152,0,0,1-1.52.74,1.351,1.351,0,0,1-1.49-.407c-2.788-3.336-3.319-12.85-.92-16.419a1.355,1.355,0,0,1,1.4-.568,8.087,8.087,0,0,1,2.505,1.017l0-2.491a10.726,10.726,0,0,1-3.56,1.167c-.173.027-.347.052-.522.066-.071.006-.142.008-.212.008a2.2,2.2,0,0,1-1.46-.525,2.224,2.224,0,0,1-.737-1.579A11.2,11.2,0,0,1,86.76,40.8c.008-.024.016-.047.025-.071a6.868,6.868,0,0,1,2.756-3.619,4.661,4.661,0,0,1,3.154-.691L92.655,10.58c2.384-.943,4.927-1.815,7.577-2.594,2.976-.873,6.057-1.616,9.158-2.209s6.235-1.047,9.313-1.356,6.1-.463,8.971-.463a83.225,83.225,0,0,1,10.2.64,56.106,56.106,0,0,1,9.837,2.116,43.662,43.662,0,0,1,8.753,3.815,28.171,28.171,0,0,1,6.986,5.678,24.94,24.94,0,0,1,4.65,7.8,29.4,29.4,0,0,1,1.679,10.344,23,23,0,0,1-1.086,7.15,19.762,19.762,0,0,1-3.1,5.936,19.271,19.271,0,0,1-4.917,4.477c-1.93,1.235-7.675,4.12-7.675,4.12s6.8,3.341,9.25,4.849a24.087,24.087,0,0,1,6.215,5.46,24.412,24.412,0,0,1,3.961,7.243,26.285,26.285,0,0,1,1.4,8.644,21.274,21.274,0,0,1-2.05,9.694m-84.443-28.2c-.15.018-.336.049-.524.062a11.819,11.819,0,0,1-4.961-.743.572.572,0,0,1-.265-.263A14.111,14.111,0,0,1,80.2,58.542a17.946,17.946,0,0,1,.047-6.653c.142-.707.384-1.395.592-2.087a.464.464,0,0,1,.2-.26A11.556,11.556,0,0,1,86.383,48.2a.642.642,0,0,1,.087.01,19.6,19.6,0,0,0,.868,15.519M77.662,56.2a16.929,16.929,0,0,0,1.589,5.946c-3.545-1.2-6.091-3.016-6.827-5.071L68.7,56.338a.16.16,0,0,1,0-.315l3.537-.605c.28-2.151,2.607-3.995,6.127-5.126a15.336,15.336,0,0,0-.7,5.908" transform="translate(0 0)" fill="#fff"/><path d="M100.891,173.27l2.06-25.551H88.476l-.105,4.706-.785,35.041,19.358-1.517,1.169-12.359Z" transform="translate(-27.407 -46.223)" fill="#5bb9b1"/><path d="M149.418,151.474l-2.873-9.915-15.476.78-.728,2.436-10.35,34.639,14.195,1.392,1.392-6.291h6.346l1.67,6.291,13.806-1.782ZM136.747,166l2.06-9.686L140.923,166Z" transform="translate(-37.547 -44.296)" fill="#f8dd74"/><path d="M203.491,149.88l-13.36-.947-2.312,5.74-2.531,6.285-2.26-6.1-2.193-5.922-14.2,1.782,1.774,3.6,8.413,17.056-.334,15.643H190.8l-.39-15.754,11.276-18.425Z" transform="translate(-52.143 -46.603)" fill="#f9a11b"/><path d="M211.686,75.388a24.38,24.38,0,0,0-3.961-7.243,24.054,24.054,0,0,0-6.215-5.461c-2.445-1.508-9.25-4.849-9.25-4.849s5.745-2.886,7.675-4.12a19.255,19.255,0,0,0,4.916-4.477,19.764,19.764,0,0,0,3.1-5.936,23.016,23.016,0,0,0,1.087-7.15,29.4,29.4,0,0,0-1.68-10.344,24.924,24.924,0,0,0-4.65-7.8,28.14,28.14,0,0,0-6.986-5.678,43.606,43.606,0,0,0-8.753-3.815A56.133,56.133,0,0,0,177.135,6.4a83.215,83.215,0,0,0-10.2-.64c-2.875,0-5.894.156-8.971.463s-6.212.765-9.313,1.356-6.182,1.336-9.158,2.209c-2.649.778-5.194,1.65-7.577,2.594l.04,25.837a4.661,4.661,0,0,0-3.154.691,6.865,6.865,0,0,0-2.756,3.618c-.009.024-.017.048-.025.071a11.22,11.22,0,0,0-.541,4.018,2.225,2.225,0,0,0,.737,1.579,2.2,2.2,0,0,0,1.46.526c.071,0,.14,0,.212-.009.175-.014.348-.038.523-.066a10.737,10.737,0,0,0,3.559-1.167l0,2.491a8.073,8.073,0,0,0-2.5-1.018,1.358,1.358,0,0,0-1.4.568c-2.4,3.569-1.866,13.083.921,16.419a1.352,1.352,0,0,0,1.49.406,8.106,8.106,0,0,0,1.519-.74l.018,11.444,6.547-.615L140.352,95.5l10.835-.546,2.038,7.036,17.346-2.177,1.987,5.366,2.094-5.2,22.729,1.611L194.4,106.46c1.011-.339,2.013-.695,2.992-1.085a30.417,30.417,0,0,0,8.118-4.729,21.553,21.553,0,0,0,5.528-6.921,21.27,21.27,0,0,0,2.05-9.694,26.282,26.282,0,0,0-1.4-8.643M130.522,63.355c-1.36-2.755-1.691-8.586-.647-11.437a6.491,6.491,0,0,1,2.1,1.507,6.479,6.479,0,0,1-1.456,9.929m1.254-19.047a6.76,6.76,0,0,1-3.609,1.64,8.8,8.8,0,0,1,.419-2.5,4.118,4.118,0,0,1,1.615-2.228,1.811,1.811,0,0,1,1.683-.25c.028.01.047.031.074.043a1.367,1.367,0,0,1,.776,1.407,2.617,2.617,0,0,1-.77,1.685c-.063.067-.115.136-.187.2m44.956,35.311a8.134,8.134,0,0,1-2.639,2.64,9.774,9.774,0,0,1-3.4,1.3,18.941,18.941,0,0,1-3.327.325,12.073,12.073,0,0,1-2.062-.181q-1.048-.18-2.133-.4l.291-16.49a18.6,18.6,0,0,1,4.05-.434,18.941,18.941,0,0,1,3.327.325,9.069,9.069,0,0,1,3.326,1.3,8.183,8.183,0,0,1,2.568,2.712,8.574,8.574,0,0,1,1.048,4.485,8.178,8.178,0,0,1-1.048,4.412m-.542-31.57a10.181,10.181,0,0,1-3.87,2.893,17.007,17.007,0,0,1-4.737,1.266,36.3,36.3,0,0,1-4.122.289l.432-16.057a25.6,25.6,0,0,1,2.677-1.012,9.305,9.305,0,0,1,2.82-.434,9.541,9.541,0,0,1,2.641.434A8.691,8.691,0,0,1,174.78,36.8a8.053,8.053,0,0,1,2.133,2.423,6.965,6.965,0,0,1,.868,3.58,7.97,7.97,0,0,1-1.591,5.244" transform="translate(-39.259 -1.803)" fill="#f05b5c"/><path d="M85.54,75.388a24.442,24.442,0,0,0-3.962-7.243,24.065,24.065,0,0,0-6.215-5.46c-2.445-1.508-9.25-4.849-9.25-4.849s5.745-2.886,7.676-4.12a19.267,19.267,0,0,0,4.916-4.477c.012-.016.023-.034.035-.049.273.074.537.155.825.215a17.162,17.162,0,0,0,3.5.359,17.536,17.536,0,0,0,2.347-.157,2.278,2.278,0,0,0,1.617-.934,2.193,2.193,0,0,0,.281-1.78,28.674,28.674,0,0,0-.821-2.908,13.524,13.524,0,0,0-3.669-5.6l-.032-.026c.064-.724.105-1.455.105-2.2a29.4,29.4,0,0,0-1.679-10.344,24.937,24.937,0,0,0-4.65-7.8,28.14,28.14,0,0,0-6.986-5.678,43.589,43.589,0,0,0-8.753-3.815A56.114,56.114,0,0,0,50.987,6.4a83.2,83.2,0,0,0-10.2-.64c-2.875,0-5.894.156-8.971.463S25.6,6.989,22.5,7.58s-6.182,1.336-9.158,2.209c-2.649.778-5.194,1.65-7.577,2.594l.142,91.286a52.6,52.6,0,0,0,7.718,2.889,81.48,81.48,0,0,0,9.241,2.1c.519.087,1.042.163,1.564.241,0-.223,0-.448,0-.67-.019-2.326.029-4.7.144-7.069l.136-2.8,2.691-.8a55.948,55.948,0,0,1,7.671-1.707A54.144,54.144,0,0,1,43,95.276a30.767,30.767,0,0,1,4.921.4,24.765,24.765,0,0,1,4.887,1.31,22.352,22.352,0,0,1,4.431,2.285,16.809,16.809,0,0,1,1.736,1.347L59,99.341l16.615-.608L73.764,79.008l12.462-1.171a24.035,24.035,0,0,0-.687-2.449m-.991-28.4a14.5,14.5,0,0,1-4.258-.2c-.058-.012-.116-.017-.174-.03a8.79,8.79,0,0,1-3.79-1.683,4.4,4.4,0,0,1-1.812-3.286,3.957,3.957,0,0,1,.021-.525c.005-.059.01-.117.013-.176l.216-.63.011-.017c.058-.092.115-.186.179-.276a2.957,2.957,0,0,1,2.793-1.231,5.165,5.165,0,0,1,3.265,1.463,9.893,9.893,0,0,1,1.228,1.354,11.4,11.4,0,0,1,1.7,3.145c.238.666.428,1.38.605,2.091M50.585,79.619a8.142,8.142,0,0,1-2.64,2.64,9.774,9.774,0,0,1-3.4,1.3,18.935,18.935,0,0,1-3.327.325,12.079,12.079,0,0,1-2.062-.181q-1.048-.18-2.133-.4l.29-16.49a18.614,18.614,0,0,1,4.05-.434,18.935,18.935,0,0,1,3.327.325,9.072,9.072,0,0,1,3.327,1.3,8.2,8.2,0,0,1,2.568,2.712,8.587,8.587,0,0,1,1.048,4.485,8.191,8.191,0,0,1-1.048,4.412m-.543-31.57a10.175,10.175,0,0,1-3.87,2.893,17,17,0,0,1-4.737,1.266,36.3,36.3,0,0,1-4.123.289l.434-16.057a25.525,25.525,0,0,1,2.676-1.012A9.306,9.306,0,0,1,43.244,35a9.532,9.532,0,0,1,2.64.434A8.672,8.672,0,0,1,48.633,36.8a8.055,8.055,0,0,1,2.133,2.423,6.972,6.972,0,0,1,.867,3.58,7.97,7.97,0,0,1-1.591,5.244" transform="translate(-1.804 -1.803)" fill="#f05b5c"/><path d="M103.467,78.32l-3.536.605a.16.16,0,0,0,0,.315l3.725.736c.736,2.056,3.282,3.873,6.827,5.072A16.936,16.936,0,0,1,108.89,79.1a15.336,15.336,0,0,1,.7-5.908c-3.521,1.132-5.848,2.975-6.127,5.126" transform="translate(-31.228 -22.903)" fill="#f05b5c"/><path d="M122.864,70.157a.757.757,0,0,0-.086-.01,11.566,11.566,0,0,0-5.342,1.345.455.455,0,0,0-.2.26c-.209.693-.451,1.38-.593,2.087a17.962,17.962,0,0,0-.047,6.653,14.129,14.129,0,0,0,1.384,4.239.575.575,0,0,0,.265.263,11.821,11.821,0,0,0,4.961.743c.188-.013.374-.044.524-.062a19.6,19.6,0,0,1-.869-15.519" transform="translate(-36.395 -21.95)" fill="#f05b5c"/><path d="M70.046,151.19a12.377,12.377,0,0,0-1.86-3.375,12.565,12.565,0,0,0-2.908-2.686,18.289,18.289,0,0,0-3.646-1.878,20.769,20.769,0,0,0-4.105-1.1,26.693,26.693,0,0,0-4.287-.348,50.012,50.012,0,0,0-7.348.529,51.764,51.764,0,0,0-7.125,1.586q-.167,3.452-.139,6.848c0,.4,0,.808,0,1.212.007,1.86,0,3.72-.03,5.579q-.029,3.2-.042,6.207t-.028,5.97q-.014,2.964-.027,5.971t-.014,6.179H51.458V170.026a36.3,36.3,0,0,0,4.537-.348,27.086,27.086,0,0,0,4.467-1,21.08,21.08,0,0,0,4.05-1.753,12.924,12.924,0,0,0,3.3-2.644,11.853,11.853,0,0,0,2.213-3.661,14.471,14.471,0,0,0,.1-9.241c-.023-.065-.051-.124-.074-.188m-12.005,7.494a4.83,4.83,0,0,1-1.155,1.475,5.174,5.174,0,0,1-1.656.961,5.718,5.718,0,0,1-1.935.334h-.752a5.3,5.3,0,0,1-.751-.056l.333-8.128q.557-.138,1.183-.236a7.924,7.924,0,0,1,1.211-.1,4.041,4.041,0,0,1,2.853,1.016,3.658,3.658,0,0,1,1.1,2.825,4.153,4.153,0,0,1-.431,1.907" transform="translate(-12.043 -44.372)" fill="#6f8dc7"/><path d="M133.865,127.69l-1.793-19.065-6.546.616-8.332.783L104.732,111.2l1.854,19.725.024.251,6.044-.568,12.9-1.213,8.393-.789Zm-8.31-.618L114.58,128.1l-5.888.553-1.446-15.378,10.385-.976,7.9-.743,4.46-.419,1.446,15.378Z" transform="translate(-32.772 -33.99)" fill="#6f8dc7"/><path d="M122.736,122.929a2.878,2.878,0,0,0-.662-1.786,2.654,2.654,0,0,0-.79-.522,4.863,4.863,0,0,0-2.4-.367,10.1,10.1,0,0,0-3.279.93l.8,1.846a5.711,5.711,0,0,1,2.249-.8,1.2,1.2,0,0,1,1.471,1.051,4.421,4.421,0,0,0-1.533-.148,3.777,3.777,0,0,0-1.991.809,2.635,2.635,0,0,0-1.009,2.51,3.1,3.1,0,0,0,3.339,2.815,3.716,3.716,0,0,0,.493-.086,3.512,3.512,0,0,0,1.5-.742c.043.069.043.069.171.259l.188.256.043.069,2.291-.745a5.586,5.586,0,0,1-.533-2.164Zm-2.3,3.529a1.548,1.548,0,0,1-1.027.553.956.956,0,0,1-1.111-.92,1.09,1.09,0,0,1,1.1-1.182,1.906,1.906,0,0,1,.875.155l.167,1.392h0" transform="translate(-36.162 -37.622)" fill="#6f8dc7"/><path d="M132.4,124.442a1.465,1.465,0,0,1-.678.253.914.914,0,0,1-.68-.229.933.933,0,0,1-.232-.71l-.007-.072-.234-2.3,1.759-.166L132.123,119l-1.741.164-.106-1.125a8.768,8.768,0,0,1-.075-1.383l-2.848.267.229,1.461.1,1.034-1.034.1.208,2.213,1.034-.1.27,3.067a2.705,2.705,0,0,0,3.079,2.583,3.024,3.024,0,0,0,1.171-.344,3.524,3.524,0,0,0,.956-.77l-.932-1.742c-.01.007-.019.009-.029.015" transform="translate(-39.629 -36.504)" fill="#6f8dc7"/><path d="M192.084,50.117a8.69,8.69,0,0,0-2.748-1.374,9.537,9.537,0,0,0-2.641-.434,9.305,9.305,0,0,0-2.82.434,25.589,25.589,0,0,0-2.676,1.013l-.433,16.056a36.292,36.292,0,0,0,4.122-.289,17.005,17.005,0,0,0,4.737-1.266,10.164,10.164,0,0,0,3.869-2.893,7.97,7.97,0,0,0,1.591-5.244,6.974,6.974,0,0,0-.868-3.58,8.055,8.055,0,0,0-2.133-2.423m-1.635,8.718a6.206,6.206,0,0,1-2.383,1.783,13.161,13.161,0,0,1-3.226.918l.243-9.025a5.313,5.313,0,0,1,1.612-.245,5.63,5.63,0,0,1,1.529.275,4.685,4.685,0,0,1,1.5.752,4.076,4.076,0,0,1,1.079,1.244,3.173,3.173,0,0,1,.326,1.582,4.537,4.537,0,0,1-.678,2.715" transform="translate(-56.564 -15.116)" fill="#fff"/><path d="M62.253,95.62a9.072,9.072,0,0,0-3.327-1.3,18.874,18.874,0,0,0-3.327-.326,18.6,18.6,0,0,0-4.05.434l-.291,16.49q1.085.216,2.134.4a12.064,12.064,0,0,0,2.061.18,18.869,18.869,0,0,0,3.327-.325,9.76,9.76,0,0,0,3.4-1.3,7.583,7.583,0,0,0,3.688-7.051,8.579,8.579,0,0,0-1.048-4.485,8.184,8.184,0,0,0-2.568-2.712m-.779,9.5a4.2,4.2,0,0,1-1.362,1.379,5.809,5.809,0,0,1-2.03.781,15.1,15.1,0,0,1-2.627.262l-.178,0,.17-9.584H55.6a15.056,15.056,0,0,1,2.625.263,5.1,5.1,0,0,1,1.889.736,4.267,4.267,0,0,1,1.319,1.428,4.743,4.743,0,0,1,.479,2.438,4.4,4.4,0,0,1-.438,2.3" transform="translate(-16.04 -29.411)" fill="#fff"/><path d="M63,50.117a8.69,8.69,0,0,0-2.748-1.374,9.537,9.537,0,0,0-2.64-.434,9.3,9.3,0,0,0-2.821.434,25.53,25.53,0,0,0-2.676,1.013l-.434,16.056a36.3,36.3,0,0,0,4.123-.289,17,17,0,0,0,4.737-1.266,10.167,10.167,0,0,0,3.87-2.893A7.97,7.97,0,0,0,66,56.119a6.98,6.98,0,0,0-.867-3.58A8.057,8.057,0,0,0,63,50.117m-1.635,8.718a6.212,6.212,0,0,1-2.384,1.784,13.167,13.167,0,0,1-3.225.917L56,52.511a5.321,5.321,0,0,1,1.613-.245,5.627,5.627,0,0,1,1.528.275,4.69,4.69,0,0,1,1.5.752,4.079,4.079,0,0,1,1.079,1.245,3.176,3.176,0,0,1,.326,1.582,4.535,4.535,0,0,1-.679,2.715" transform="translate(-16.172 -15.116)" fill="#fff"/><path d="M191.337,95.62a9.063,9.063,0,0,0-3.327-1.3,18.867,18.867,0,0,0-3.326-.326,18.609,18.609,0,0,0-4.05.434l-.29,16.49q1.084.216,2.133.4a12.077,12.077,0,0,0,2.061.181,18.867,18.867,0,0,0,3.327-.326,9.758,9.758,0,0,0,3.4-1.3,7.583,7.583,0,0,0,3.688-7.051,8.585,8.585,0,0,0-1.048-4.485,8.193,8.193,0,0,0-2.568-2.712m-.78,9.5a4.192,4.192,0,0,1-1.362,1.378,5.794,5.794,0,0,1-2.03.781,15.088,15.088,0,0,1-2.627.262h-.177l.17-9.585h.153a15.056,15.056,0,0,1,2.625.263,5.1,5.1,0,0,1,1.887.735,4.257,4.257,0,0,1,1.321,1.431,4.734,4.734,0,0,1,.478,2.437,4.39,4.39,0,0,1-.438,2.3" transform="translate(-56.432 -29.411)" fill="#fff"/><path d="M60.579,158.006a7.928,7.928,0,0,0-1.211.1q-.627.1-1.183.236l-.334,8.128a5.215,5.215,0,0,0,.752.056h.752a5.7,5.7,0,0,0,1.934-.334,5.171,5.171,0,0,0,1.656-.96,4.855,4.855,0,0,0,1.156-1.475,4.154,4.154,0,0,0,.431-1.907,3.655,3.655,0,0,0-1.1-2.825,4.036,4.036,0,0,0-2.853-1.016" transform="translate(-18.102 -49.442)" fill="#fff"/><path d="M144.378,172.716h4.175l-2.116-9.686Z" transform="translate(-45.177 -51.014)" fill="#fff"/><path d="M107.635,60.177a8.787,8.787,0,0,0,3.789,1.683c.058.012.116.018.174.03a14.5,14.5,0,0,0,4.259.2c-.177-.71-.368-1.425-.606-2.091a11.361,11.361,0,0,0-1.7-3.145,9.933,9.933,0,0,0-1.227-1.354,5.165,5.165,0,0,0-3.265-1.463,2.956,2.956,0,0,0-2.793,1.231c-.065.09-.122.183-.18.276l-.01.017-.216.63c0,.058-.008.117-.013.176a3.733,3.733,0,0,0-.021.525,4.4,4.4,0,0,0,1.812,3.286" transform="translate(-33.112 -16.906)" fill="#fff"/><path d="M135.386,78.369a6.34,6.34,0,0,0-1.68-3.923,6.47,6.47,0,0,0-2.1-1.507c-1.044,2.851-.713,8.682.647,11.437a6.477,6.477,0,0,0,3.135-6.007" transform="translate(-40.988 -22.823)" fill="#fff"/><path d="M133.189,57c-.027-.012-.047-.032-.075-.043a1.807,1.807,0,0,0-1.683.25,4.118,4.118,0,0,0-1.615,2.228,8.774,8.774,0,0,0-.419,2.5,6.762,6.762,0,0,0,3.609-1.64c.071-.066.124-.135.187-.2a2.617,2.617,0,0,0,.77-1.685A1.368,1.368,0,0,0,133.189,57" transform="translate(-40.49 -17.789)" fill="#fff"/><path d="M126.676,112.7l-7.9.743-10.385.977,1.446,15.378,5.888-.554,10.975-1.032,5.882-.553-1.446-15.378ZM119.07,126.54l-.043-.069-.189-.256c-.128-.19-.128-.19-.171-.258a3.507,3.507,0,0,1-1.5.741,3.616,3.616,0,0,1-.492.086,3.1,3.1,0,0,1-3.339-2.815,2.635,2.635,0,0,1,1.009-2.51,3.788,3.788,0,0,1,1.991-.809,4.419,4.419,0,0,1,1.533.148,1.194,1.194,0,0,0-1.471-1.051,5.7,5.7,0,0,0-2.249.8l-.8-1.847a10.109,10.109,0,0,1,3.279-.93,4.855,4.855,0,0,1,2.4.368,2.657,2.657,0,0,1,.79.522,2.878,2.878,0,0,1,.662,1.786l.337,3.189a5.586,5.586,0,0,0,.533,2.164Zm7.626-.969a3.036,3.036,0,0,1-1.171.344,2.707,2.707,0,0,1-3.079-2.583l-.27-3.066-1.034.1-.207-2.212,1.033-.1-.1-1.034-.229-1.461,2.847-.268a8.866,8.866,0,0,0,.075,1.384l.106,1.125,1.741-.164.208,2.212-1.759.166.234,2.3.007.073a.937.937,0,0,0,.232.71.911.911,0,0,0,.68.228,1.455,1.455,0,0,0,.678-.252c.01-.006.019-.008.029-.015l.932,1.742a3.531,3.531,0,0,1-.957.771" transform="translate(-33.917 -35.135)" fill="#fff"/><path d="M121.506,127.191a1.9,1.9,0,0,0-.875-.155,1.09,1.09,0,0,0-1.1,1.182.957.957,0,0,0,1.111.92,1.549,1.549,0,0,0,1.027-.553h0v0Z" transform="translate(-37.402 -39.749)" fill="#fff"/><path d="M222.874,156.588h-.94v2.206h-.721v-2.206h-.94v-.721h2.6Zm2.849-.7h1.058v2.908h-.722v-1.958l-.712,1.543h-.583l-.712-1.543v1.958h-.721v-2.908h1.048l.673,1.662Z" transform="translate(-68.926 -48.773)" fill="#f9a11b"/></g></svg>