<svg xmlns="http://www.w3.org/2000/svg" width="34.725" height="34.725" viewBox="0 0 34.725 34.725"><g transform="translate(-1207.638 -318.638)"><path d="M29.725,32.225a2.492,2.492,0,0,1-1.768-.732L-1.768,1.768a2.5,2.5,0,0,1,0-3.536,2.5,2.5,0,0,1,3.536,0L31.492,27.957a2.5,2.5,0,0,1-1.768,4.268Z" transform="translate(1210.138 321.138)" fill="#708ec8"/><path d="M0,32.225a2.492,2.492,0,0,1-1.768-.732,2.5,2.5,0,0,1,0-3.536L27.957-1.768a2.5,2.5,0,0,1,3.536,0,2.5,2.5,0,0,1,0,3.536L1.768,31.492A2.492,2.492,0,0,1,0,32.225Z" transform="translate(1210.138 321.138)" fill="#708ec8"/></g></svg>