<svg xmlns="http://www.w3.org/2000/svg" width="32.645" height="26.018" viewBox="0 0 32.645 26.018"><g transform="translate(-232.123 -3890.536)"><path d="M1043.284,31.558c0,.016,0,.033,0,.05a1.549,1.549,0,0,0,.172,0Z" transform="translate(-779.957 3862.071)" fill="#fff"/><path d="M787.143,190.491l.037.039c-.09-.013-.12-.015-.125.048a2.473,2.473,0,0,1,.282.049Zm.362-1.658.013.01c.063-.076.188-.1.194-.113a.209.209,0,0,0,0-.093c-.1.073-.214.162-.211.2" transform="translate(-554.018 3723.561)" fill="#fff"/><path d="M787.143,204.319l.037.039c-.09-.013-.12-.015-.125.048a2.47,2.47,0,0,1,.282.049Zm29.49,1.344c-.007-.121.072-.2-.073-.2h-.087a.277.277,0,0,0,.042.037l-.177.113a.624.624,0,0,0,.064.105,2.2,2.2,0,0,1,.3.021l.063-.044a2.284,2.284,0,0,1,.052-.228Z" transform="translate(-554.018 3709.732)" fill="#fff"/><path d="M1035.063,53.324c-.007-.121.072-.2-.073-.2h-.087a.29.29,0,0,0,.042.037l-.177.113a.626.626,0,0,0,.064.105,2.18,2.18,0,0,1,.3.021l.063-.044a2.3,2.3,0,0,1,.052-.228Zm.711-21.766c0,.016,0,.033,0,.05a1.55,1.55,0,0,0,.172,0Z" transform="translate(-772.447 3862.071)" fill="#fff"/><path d="M811.838,7.784l.055-.076a2.5,2.5,0,0,1-.868.039,2.113,2.113,0,0,1,.075-.4l-.184.2c-.007-.122.073-.2-.073-.2A4.647,4.647,0,0,1,810,7.292l.067-.206c-.3.025-.673-.083-.963-.052-.109.013-.08.128-.126.137-.258.049-.316-.22-.343-.229a4.978,4.978,0,0,0-.694.089c-.086-.007-.147-.153-.255-.127l-.015.2-.228,0,.123-.17-.11-.109-.041.142-.254-.087-.039.209L806.96,6.8l-.275.264.012-.28c-.169,0-.328.141-.5.106-.091-.018-.141-.116-.226-.129-.127-.018-.335.064-.47.043-.107-.016-.126-.251-.279-.228-.178.026.078.445-.136.412l-.189-.358-.116,0,.053.141-.176-.007-.022-.216-.259-.008.052.141-.265.06.039-.209-.869-.112-.011.211c-.111.036-.139-.123-.208-.139s-.179.16-.285.12c.01-.159-.566-.193-.7-.184-.115.009-.081.151-.12.146-.089-.013-.134-.133-.169-.135-.088-.006-.252.453-.292-.034l-.434-.014.049.211-.208.062-.016-.281c-.148-.082-.111.135-.153.137-.12,0-.177-.124-.227-.126-.035,0-.089.077-.13.077a1.61,1.61,0,0,0-.423.016l-.044.2-.1-.273-.268.046.036-.139-.328.2-.08-.215a.657.657,0,0,1-.754-.037l-.039.136-.112-.005-.024-.139-.117,0-.1.2-.308-.148-.063.137-.02-.209-.776-.039-.073.139-.03-.13-.319.115c-.067-.384-.5-.163-.644.038-.2-.444-.158-.184-.294-.165-.071.011-.118-.109-.168-.116-1.278-.18-2.919-.137-4.238-.222a6.075,6.075,0,0,0-.989-.119l-.118.14a2.319,2.319,0,0,0-1.16-.16,9.8,9.8,0,0,1-1.1.047c-.154-.015-.457-.175-.575-.163-.039.005-.038.127-.082.139-.246.065-.38-.183-.5-.17l-.159.209c.005-.313-.383-.155-.573-.237l-.039.209c0-.161-.424-.231-.519-.23s-.144.126-.235.126c-.036,0-.015-.137-.058-.15-.091-.024-.2.058-.288.048a4.481,4.481,0,0,0-.814-.1c-.3.018-.227.218-.566,0-.148-.1-.369.081-.472.078-.374-.006-.953-.337-1.241.1-.133.048-.042-.266-.2-.118s-.093.408-.142.619l.043.046-.05.036c.017-.092.013-.1-.136-.1.066.211-.241.11-.365.194-.078.053-.2.3-.144.361l.342.021c-.159.159.167.473.16.523-.01.065-.184.194-.059.334l-.213.013,0,.359.127.027,0,.089-.135.014.057.163.211-.013c.021.091-.15.074-.2.115-.092.082-.167.4.1.4l-.141.038c.292.278-.2.108-.014.414.036.059.161.007.131.106l-.208-.031c-.076.091.1.214.1.252s-.34.323.053.2l.029.09c-.494-.063.031.367-.17.548l.14.1c-.193.036-.227.136-.23.262,0,.146.142.111.143.141.007.223-.259.749-.191,1.012.011.045.19.017.137.1l-.212.036c.114.2.338.214.051.45l.207.055-.283.054.135.117c-.209.131.05.3-.168.484l.142.053c-.173.053-.143.251.058.251-.264.155-.071.334.047.517l-.217.038a3.314,3.314,0,0,0,.013.492,6.493,6.493,0,0,0-.131.665c.037.142.266-.023.278-.008l0,.134-.28-.013c.208.19-.2.452.183.569l-.206.063.059.1-.144.043,0,.091.139.051c-.215.024-.142.115-.151.24l.175-.038c.161.126-.265.091-.255.235l.21.033-.215.08.2.1c.072.126-.178.078-.208.149a.478.478,0,0,0,.342.51c-.524.005-.283.081-.344.274-.039.124-.176.2-.129.365.01.034.2.059.175.152-.034.145-.419.329-.071.556l-.144.019.261.548-.255.053c.075.2-.123.4-.056.6.013.035.137.038.141.062,0,.071-.153.174-.157.258l.21.033-.219.147c.4.2.079.191.015.266a4.344,4.344,0,0,0-.116.672c0,.161.2.339.014.472-.026.019-.094,0-.052.086l.141-.038.056.317-.174-.012c-.071.125-.248.291.02.34-.264.045-.037.373-.165.528l.137.055c-.272.119.012.282-.014.448-.015.1-.133.143-.154.22-.038.143.056.418-.029.573l.134.079c-.223-.046-.239.4-.018.425-.335.112-.03.621-.042.664s-.165.106-.2.227c-.06.185.057.583.013.791-.022.1-.121.171-.132.232a2.31,2.31,0,0,0-.034.648l.283-.077c-.171.128-.217.226-.16.4l-.137-.052,0,.222.2.013c.005.1-.215.178-.228.233-.032.141-.091.6.095.668l-.055.076a2.5,2.5,0,0,1,.839-.042c0-.063.034-.061.125-.048l-.037-.039-.009-.007h0l.006.007.194.136a2.44,2.44,0,0,0-.282-.049.782.782,0,0,0,0,.087c.271-.063.146.242.255.368.07.078.39.207.471.15l.021-.342c.208.161.612-.16.676-.153.085.01.254.186.435.063l.02.213.466.01.034-.126.115,0,.02.134.21-.054-.019-.212c.116-.021.1.151.151.2.108.094.523.172.514-.1l.052.143c.357-.288.143.2.536.021.076-.035.007-.162.136-.131l-.037.209c.119.076.275-.1.325-.1s.424.344.265-.051L785,29.3c-.075.493.475-.025.712.178l.13-.139c.049.192.178.228.342.233.19.005.142-.139.181-.14a8.672,8.672,0,0,0,1.317.205c.057-.011.019-.189.131-.135l.05.212c.262-.11.274-.335.585-.044l.067-.206.075.284.149-.134c.175.21.392-.046.631.174l.068-.141a.166.166,0,0,0,.325-.055c.2.267.432.076.669-.04l.051.218a5.434,5.434,0,0,0,.639-.006c.187.015.76.162.865.14.183-.036-.035-.266-.014-.279l.174.006-.012.281c.242-.205.588.2.734-.176l.084.207.137-.058.056.145.117.006.065-.14c.034.217.151.144.312.155l-.051-.176c.16-.159.121.266.31.26l.039-.209.106.215.127-.2c.16-.07.1.18.2.211.138.045.675-.085.655-.383.008.584.1.33.361.395.163.041.27.179.477.135.044-.009.073-.2.193-.172.189.036.433.422.724.078l.026.145.707-.253.073.255c.259-.072.522.13.776.065.046-.011.045-.138.078-.139.094,0,.228.155.337.159l.04-.209.193.221c.256-.4.247-.076.344-.011a7.382,7.382,0,0,0,.873.125c.208,0,.436-.2.612-.008.026.027,0,.094.113.053l-.052-.142.41-.051-.013.174c.163.072.381.252.442-.014.063.264.485.041.686.172l.068-.136c.159.273.367-.009.583.02.127.016.187.136.288.158.184.039.54-.053.744.036l.1-.133c-.054.224.523.245.553.025.149.337.8.038.861.051s.14.167.3.207c.243.062.758-.048,1.027,0,.134.023.223.122.3.135a4.048,4.048,0,0,0,.84.044l-.1-.284a.461.461,0,0,0,.516.164l-.065.137.288.006,0-.053.009-.15c.131,0,.235.217.306.23.048.01.122.02.208.028.249.024.6.025.656-.113l.1.056a1.91,1.91,0,0,1-.058-.893l-.063.044a2.178,2.178,0,0,0-.3-.021.634.634,0,0,1-.064-.105l.177-.113a.273.273,0,0,1-.042-.037h.087c.146,0,.067.084.073.2l.184-.2a2.258,2.258,0,0,0-.052.228l.052-.037c-.016.091-.013.1.137.095-.067-.207.24-.108.364-.19.078-.053.2-.294.145-.357l-.342-.021c.158-.156-.167-.467-.161-.515.009-.065.182-.192.059-.329l.213-.013,0-.355-.127-.027,0-.087.133-.013-.057-.161-.21.012c-.022-.09.149-.073.2-.113.093-.081.166-.4-.1-.392l.142-.037c-.292-.275.2-.107.014-.408-.036-.059-.161-.007-.13-.106l.208.032c.074-.091-.1-.211-.1-.249s.339-.319-.053-.2l-.029-.089c.494.062-.032-.363.17-.541l-.141-.1c.193-.036.227-.133.231-.258,0-.144-.142-.11-.143-.14-.008-.22.259-.738.19-1-.011-.044-.189-.017-.137-.1l.213-.035c-.114-.2-.339-.212-.051-.446l-.208-.053.283-.053-.135-.116c.209-.13-.051-.3.168-.478l-.142-.053c.173-.052.142-.246-.058-.247.263-.152.069-.329-.049-.51l.218-.037a3.241,3.241,0,0,0-.012-.486c.013-.143.152-.577.131-.657-.038-.141-.266.023-.28.008l.005-.133.28.013c-.207-.187.2-.446-.184-.562l.206-.062-.059-.1.144-.041,0-.089-.14-.05c.217-.024.142-.114.151-.237l-.175.038c-.161-.124.264-.089.255-.232l-.21-.033.215-.078-.206-.1c-.072-.123.179-.075.21-.148a.47.47,0,0,0-.347-.5c.526,0,.286-.08.347-.271.039-.123.176-.2.128-.361-.01-.033-.2-.059-.174-.149.034-.144.418-.325.069-.549l.146-.019-.262-.54.255-.053c-.076-.2.123-.395.055-.59-.012-.034-.138-.036-.139-.061,0-.071.152-.172.156-.255l-.21-.033.218-.144c-.4-.2-.078-.188-.013-.263a4.243,4.243,0,0,0,.114-.662c0-.159-.2-.335-.015-.466.028-.02.094,0,.052-.086l-.141.038-.056-.313.174.013c.07-.123.247-.288-.021-.338.264-.044.036-.368.166-.52l-.138-.053c.272-.118-.012-.279.013-.443.015-.1.134-.142.154-.218.038-.14-.057-.412.029-.567l-.135-.076c.224.045.239-.4.019-.42.335-.11.029-.613.042-.656s.165-.1.2-.223c.059-.184-.057-.576-.014-.781.022-.1.119-.169.131-.229a2.315,2.315,0,0,0,.035-.64l-.283.076c.17-.126.215-.223.159-.392l.137.052,0-.219-.2-.013c-.005-.1.214-.176.227-.23.032-.138.091-.593-.095-.659m-27.5-1.549c.129.048.114.221.1.354l-.116,0Zm-3.35,2.285,0-.089.349.016c-.048.1-.22.086-.353.073m-.093,18.626c-.006.014-.131.037-.194.113l.216.162c-.117-.04-.193-.049-.247-.015a.153.153,0,0,1,.031-.147l-.013-.01c0-.034.108-.123.211-.2a.21.21,0,0,1,0,.093m2.477,2.151-.115-.006.016-.349c.13.049.114.222.1.355m24.163.35a4.988,4.988,0,0,0-.694.089c-.086-.007-.147-.153-.255-.127l-.015.2-.227,0,.123-.17-.11-.109-.041.142-.254-.087-.039.209-.161-.285-.275.264.012-.28c-.168,0-.327.142-.5.105-.091-.018-.141-.116-.226-.128-.126-.019-.333.064-.469.042-.107-.016-.126-.251-.279-.228-.178.027.078.445-.136.414l-.189-.358-.115-.006.052.141-.174-.008-.022-.216-.259-.007.052.141-.264.06.037-.209-.867-.112-.011.211c-.109.036-.138-.124-.206-.14s-.179.16-.285.12c.01-.159-.566-.193-.7-.184s-.081.151-.12.146c-.091-.013-.135-.133-.169-.135-.088-.006-.25.453-.292-.034l-.434-.014.049.211-.206.063-.017-.282c-.147-.083-.109.136-.151.136-.12,0-.177-.124-.227-.126-.035,0-.088.076-.129.077a1.743,1.743,0,0,0-.423.016l-.044.2-.1-.273-.267.047.035-.138-.327.194-.08-.215a.655.655,0,0,1-.754-.036l-.038.136-.112-.005-.025-.138-.116,0-.105.2-.308-.147-.062.137-.02-.209-.776-.039-.073.139-.029-.13-.319.115c-.066-.385-.5-.162-.642.038-.2-.444-.158-.184-.294-.164-.073.011-.118-.109-.168-.117-1.276-.179-2.915-.137-4.233-.22a6.045,6.045,0,0,0-.987-.12l-.118.14a2.328,2.328,0,0,0-1.158-.16,9.481,9.481,0,0,1-1.1.048c-.155-.017-.458-.175-.574-.163-.039.005-.038.127-.082.139-.245.065-.38-.183-.5-.17l-.159.209c.005-.312-.382-.155-.571-.236l-.039.208c0-.159-.422-.232-.517-.229s-.144.126-.235.126c-.036,0-.016-.138-.058-.15-.091-.025-.2.057-.286.047a4.48,4.48,0,0,0-.814-.1c-.3.018-.227.217-.566,0-.146-.095-.368.08-.469.079a1.252,1.252,0,0,1-.19-.023c-.015-.034-.04-.065-.033-.079.074-.141.274.038.29.033.08-.022.174-.3.229-.345s.161.056.188-.008l-.126-.156.1-.091.06.176.118.039-.077-.122.162-.037-.121-.173.254.149-.062-.308.179.215c.068-.07.043-.239.138-.28.05-.022.134.031.177.006.064-.037.1-.182.166-.22s.217.138.266.059-.326-.3-.216-.366l.313.193.051-.042-.114-.084.078-.065.151.152.111-.1-.115-.085.07-.151.121.172.432-.265-.135-.162c.022-.072.139.036.178.022s-.031-.192.039-.205c.1.123.36-.082.408-.142s-.066-.145-.046-.157c.045-.027.142.046.158.033.041-.03-.195-.442.143-.092l.189-.163-.159-.139.044-.13.192.205c.116,0-.043-.147-.027-.163.047-.051.154.022.176,0s-.014-.094,0-.109a.569.569,0,0,0,.164-.183l-.113-.168.222.164.079-.141.076.118.007-.279.173.129c.014-.186.124-.338.336-.276l-.074-.117.049-.042.1.1.051-.045-.087-.19.225-.014-.066-.128.147.15.345-.284-.061-.134.1.087.056-.215c.279.262.314-.08.24-.287.374.254.186.076.23.006.021-.037.12.035.145.019a20.288,20.288,0,0,0,1.892-1.536c.142-.111.371-.15.485-.307l-.043-.153c.223.047.446-.212.583-.346s.24-.356.423-.478c.074-.051.3-.052.343-.109.013-.019-.068-.11-.058-.138.059-.148.277-.015.319-.074l-.071-.221c.2.237.26-.038.392-.053l-.122-.172c.1.121.328,0,.365-.036s-.024-.153.015-.19c.014-.014.1.1.122.09.055-.018.045-.124.087-.152a1.5,1.5,0,0,0,.4-.253c.111-.134-.049-.254.235-.226.124.013.1-.209.142-.248a.655.655,0,0,1,.184-.1c-.085.277.4.308.414.339s-.038.183.013.274c.082.143.413.261.518.4.053.071.033.181.065.222.046.059.334.377.394.365l.133-.257c-.028.2.006.284.152.328l-.121.078.14.118.139-.149c.067.049-.023.257,0,.3.07.1.327.383.49.274l.013.082c.021-.035.04-.067.061-.1a3.068,3.068,0,0,1,.451.515l-.068-.223c.089.082.116.175.175.112a1.624,1.624,0,0,1,.376-.343l.119.176c.1-.151.33-.239.424-.392.036-.056-.057-.125-.045-.152.07-.15.283.014.3.008.082-.029.165-.325.219-.37s.167.043.192-.024l-.136-.149.094-.1.069.175.122.029-.085-.119.164-.052-.131-.164.266.129-.076-.309.194.2c.065-.076.031-.246.126-.3.051-.028.139.02.183-.009.063-.044.09-.195.158-.239s.229.122.275.038c.023-.044-.044-.1-.114-.165a.8.8,0,0,1,.182.013c.025.039-.037.222.124.206l-.148.152.176.182.106-.074.042.048-.092.1.123.042.147-.15c.061.03-.072.139-.085.191-.027.1.078.314.271.128l-.084.116c.352-.062-.089.189.2.215.055,0,.121-.107.149-.037l-.167.127c-.01.1.182.036.2.056s-.086.394.141.066l.067.024c-.392.307.205.161.149.39l.153-.047c-.122.15-.1.222-.037.288s.159-.042.175-.028c.116.107.185.55.367.634.03.015.146-.12.151-.041l-.137.162c.186.023.354-.125.262.189l.18-.115-.18.221.157-.034c-.086.209.187.116.12.355l.13-.07c-.1.146.021.222.167.085-.114.257.116.214.293.224l-.139.168c.051.1.189.152.255.235s.181.4.237.422c.1.044.181-.195.2-.2l.063.07-.211.185c.245-.047.082.36.418.158l-.119.172.1.013-.084.12.042.048.127-.071c-.146.161-.046.156.01.224l.109-.139c.18-.048-.148.225-.069.291l.169-.127-.116.186.2-.091c.114.013-.093.16-.078.218a.37.37,0,0,0,.511.011c-.389.368-.172.24-.121.379.034.088-.025.222.089.27.024.01.173-.1.2-.045.047.1-.139.45.227.326l-.1.108.464.094-.159.2c.155.047.11.283.257.336.026.008.12-.077.133-.065.038.033-.025.191.014.235l.17-.127-.086.223c.393-.174.154.041.143.121a2.226,2.226,0,0,0,.252.413c.082.078.316.03.247.224-.011.029-.067.066.005.079l.083-.116.2.119-.133.113c.012.111-.034.314.185.157-.169.2.16.209.143.374l.128-.067c-.139.245.15.133.213.233.038.059-.025.162,0,.215.043.1.25.168.266.3l.136-.052c-.185.132.027.363.2.226-.188.284.289.327.3.358s-.067.166-.036.252a.345.345,0,0,0,.121.135c-.156-.038-.2-.218-.219-.225M792.107,18.7l.051-.043.222.269c-.085.017-.193-.12-.273-.226m8.118,1.149c.016.081-.118.193-.22.278l-.042-.047Zm10.091,8.108,0,.087-.349-.016c.048-.1.221-.083.354-.07m.213-19.42c.01.218-.079.477-.045.683.014.083.128.061.137.1.052.2-.216.238-.223.257-.04.1.1.441.095.529-.006.064-.151.11-.123.192l.2.013v.173l-.17-.1-.108.082.142.032-.083.192.209.032-.284.119.268.212-.28-.013c0,.128.146.251.111.383-.017.069-.115.105-.126.17-.017.1.067.255.048.356-.016.082-.251.093-.225.21.029.137.443-.053.414.108l-.355.139,0,.088.141-.038-.006.133-.215.014,0,.2.141-.038.062.2-.209-.032-.1.66.211.011c.036.084-.122.1-.137.156s.162.137.123.218c-.159-.01-.186.427-.176.526s.151.063.146.093c-.011.068-.131.1-.133.126,0,.068.456.2-.03.222l-.01.33.21-.036.065.158-.282.009c-.081.111.137.085.139.118,0,.091-.122.133-.125.17s.079.069.079.1a.986.986,0,0,0,.02.323l.2.034-.272.074.049.2-.139-.029.2.252-.213.059a.4.4,0,0,1-.028.573l.136.03,0,.085-.139.017,0,.089.2.082-.144.232.139.048-.21.013-.03.59.14.057-.13.02.118.244c-.383.046-.156.381.045.489-.442.146-.182.118-.16.222.011.055-.108.088-.114.126-.166.969-.106,2.216-.174,3.218a3.568,3.568,0,0,0-.109.751l.142.091c-.187.18-.15.628-.148.879a5.57,5.57,0,0,1,.06.84c-.014.117-.169.344-.156.434.005.03.127.03.14.065.068.187-.178.287-.163.379l.211.123c-.312-.008-.151.289-.23.433l.209.032c-.161,0-.227.318-.224.391s.128.11.128.18c0,.026-.138.01-.148.042-.024.069.058.151.05.218a2.659,2.659,0,0,0-.089.618c.022.226.22.175,0,.43-.094.112.085.281.084.358a1.183,1.183,0,0,1-.061.291c-.082-.061-.268-.117-.3-.158s.055-.158-.008-.18l-.152.13-.088-.086.172-.069.038-.115-.12.081-.036-.154-.167.127.145-.254-.3.077.21-.186c-.068-.061-.233-.026-.274-.116-.022-.046.03-.131.005-.172-.036-.06-.178-.083-.215-.148s.136-.218.059-.259-.3.332-.356.23l.188-.315-.042-.046-.083.115-.062-.071.149-.155-.1-.1-.083.115-.148-.059.169-.128-.26-.4-.158.139c-.07-.017.035-.136.021-.172s-.188.042-.2-.025c.121-.1-.08-.343-.138-.387s-.142.072-.153.053c-.025-.042.045-.14.033-.154-.03-.038-.43.213-.089-.134l-.159-.172-.136.162-.127-.036.2-.2c0-.112-.143.051-.159.036-.049-.044.021-.151,0-.171s-.091.019-.108,0a.51.51,0,0,0-.177-.149l-.164.12.16-.224-.139-.068.115-.081-.272.009.126-.176c-.182,0-.331-.1-.269-.307l-.114.077-.04-.045.092-.1-.044-.046-.186.095-.013-.215-.124.069.146-.15-.276-.317-.13.067.083-.1-.209-.041c.255-.286-.079-.3-.28-.216.247-.376.072-.184,0-.223-.036-.019.035-.117.02-.142a17.851,17.851,0,0,0-1.5-1.741c-.109-.131-.147-.35-.3-.453l-.15.051c.044-.219-.209-.419-.338-.543s-.348-.212-.467-.382c-.049-.069-.051-.29-.107-.326-.019-.012-.107.072-.135.064-.144-.049-.015-.267-.073-.3l-.216.081c.232-.211-.035-.25-.051-.376l-.169.127c.12-.107,0-.316-.034-.35s-.149.033-.184,0c-.015-.014.094-.1.086-.124-.017-.051-.12-.036-.146-.075-.085-.121-.121-.277-.248-.372s-.249.062-.22-.215c.011-.106-.156-.091-.223-.112l.074-.053-.145-.154c.021-.074.144.026.184.008s-.041-.193.029-.212c.109.117.365-.116.411-.18s-.073-.143-.054-.156c.045-.031.147.034.163.021.04-.036-.219-.433.142-.106l.185-.182-.169-.127.04-.136.205.192c.118-.008-.051-.144-.035-.165.046-.055.159.01.181-.011s-.019-.094,0-.112a.593.593,0,0,0,.16-.2l-.125-.161.234.148.074-.151.084.115-.005-.284.183.116c.005-.19.112-.355.33-.31l-.08-.114.048-.046.107.088.05-.05-.1-.186.229-.033-.072-.124.156.14.339-.318-.069-.131.1.079.047-.223c.3.243.318-.109.233-.313.393.226.193.061.234-.015.023-.04.125.025.151.008a22.219,22.219,0,0,0,1.865-1.727c.14-.126.372-.184.483-.355l-.052-.152c.231.028.447-.255.581-.4a3.47,3.47,0,0,1,.41-.523c.073-.057.307-.08.346-.141.013-.02-.074-.106-.064-.135.052-.155.282-.04.321-.1l-.083-.218c.219.223.263-.061.4-.088l-.132-.164c.112.114.334-.024.371-.069s-.031-.154.005-.193c.015-.017.1.089.13.08.054-.023.04-.13.082-.162a1.669,1.669,0,0,0,.4-.292c.107-.145-.063-.254.23-.25.126,0,.092-.22.133-.264.156-.162.623-.185.429-.626.02-.093.2.169.164-.006s-.251-.329-.38-.5l-.126-.035c.061-.041.064-.049-.046-.15-.064.166-.23-.106-.362-.146-.084-.025-.3.027-.3.1l.233.251c-.2-.02-.135.387-.166.41s-.234-.02-.22.148l-.158-.142-.2.2.076.105-.051.048-.1-.087-.047.133.158.141c-.034.067-.146-.064-.2-.073-.111-.018-.333.111-.141.3l-.12-.078c.06.363-.2-.077-.231.225-.007.059.111.117.036.153l-.132-.165c-.1,0-.04.195-.062.215s-.414-.055-.071.154l-.028.071c-.318-.383-.174.231-.413.191l.046.157c-.155-.115-.233-.082-.3-.013s.042.161.026.181c-.114.132-.584.242-.676.44-.015.034.126.144.042.155l-.169-.129c-.029.2.125.359-.205.292l.119.176-.23-.168.033.161c-.219-.072-.125.207-.378.157l.073.129c-.151-.091-.235.042-.092.183-.271-.1-.228.14-.242.327l-.175-.132c-.111.064-.164.214-.253.289a4.3,4.3,0,0,0-.448.284c-.048.107.2.173.2.192l-.075.073-.192-.2c.046.252-.38.118-.172.45l-.181-.109-.013.1-.125-.078-.052.049.072.127c-.167-.138-.162-.034-.236.03l.144.1c.048.184-.235-.135-.307-.046l.132.165-.2-.105.094.2c-.016.121-.168-.082-.229-.063a.393.393,0,0,0-.022.537c-.382-.374-.249-.159-.4-.092-.095.043-.235-.006-.288.117-.011.025.109.171.044.207-.1.059-.473-.106-.348.267l-.114-.091-.106.494-.21-.148c-.052.167-.3.14-.359.3-.009.029.079.118.066.133-.035.043-.2-.008-.249.037l.132.165-.233-.07c.177.4-.046.164-.132.162a2.561,2.561,0,0,0-.44.3c-.083.093-.037.333-.241.278-.03-.008-.068-.065-.083.012l.121.077-.13.218-.117-.128c-.116.021-.331-.008-.167.207-.213-.16-.224.186-.4.182l.068.127c-.256-.123-.142.17-.248.246-.063.044-.171-.013-.227.017-.1.053-.182.277-.327.305l.054.137c-.135-.182-.384.06-.241.229-.3-.173-.351.331-.383.347s-.174-.057-.266-.015c-.141.064-.271.372-.412.458-.071.044-.177.013-.218.041-.059.038-.378.283-.371.343l.243.155c-.127-.032-.207-.032-.262.013a1.344,1.344,0,0,1-.282-.282l.167-.129c-.167-.1-.283-.328-.449-.417-.063-.034-.123.065-.152.053-.162-.065-.016-.291-.023-.307-.04-.082-.354-.153-.406-.206s.025-.174-.046-.2l-.138.147-.113-.091.172-.08.015-.126-.112.092-.071-.165-.155.144.1-.28-.31.092.187-.207c-.085-.064-.256-.022-.32-.117-.033-.05.006-.144-.029-.187-.052-.063-.209-.082-.263-.151s.1-.241.008-.284-.251.369-.336.261l.137-.346-.054-.05-.065.128-.083-.074.128-.173-.125-.107-.065.128-.172-.058.154-.145-.363-.426-.141.156c-.079-.016.01-.148-.014-.187s-.193.051-.221-.021c.109-.116-.158-.368-.229-.413s-.139.083-.155.063c-.038-.044.018-.153,0-.168-.041-.038-.42.246-.124-.14l-.208-.182-.113.179-.144-.034.174-.22c-.02-.12-.143.059-.165.043-.061-.045-.007-.163-.031-.185s-.095.024-.115.009a.687.687,0,0,0-.223-.155l-.152.135.126-.247-.164-.07.107-.091-.29.018.1-.194c-.2,0-.378-.1-.355-.324l-.107.088-.053-.047.078-.115-.057-.048-.18.109-.06-.233-.119.081.126-.168-.364-.335-.128.078.07-.111-.235-.038c.216-.318-.147-.321-.347-.224.189-.414.041-.2-.041-.24-.043-.021.012-.129-.008-.155a25.041,25.041,0,0,0-1.982-1.832c-.144-.139-.231-.373-.418-.48l-.151.061c0-.239-.312-.446-.478-.578a4.059,4.059,0,0,1-.583-.4c-.068-.073-.115-.313-.182-.349-.023-.013-.1.081-.132.073-.166-.047-.072-.288-.142-.326l-.215.1c.206-.235-.091-.269-.134-.4l-.155.144c.1-.121-.062-.343-.112-.379s-.154.04-.2,0c-.018-.014.082-.11.068-.136-.03-.054-.137-.035-.174-.078-.116-.126-.188-.294-.344-.394s-.255.076-.283-.225c-.012-.13-.237-.084-.286-.125-.184-.152-.259-.631-.691-.41-.1-.015.151-.217-.025-.168s-.311.274-.472.414l-.021.131c-.049-.061-.057-.063-.149.054.177.059-.085.242-.11.38-.016.087.061.31.139.3l.233-.252c0,.2.412.119.438.15s.008.241.177.219l-.127.17.228.19.1-.082.054.048-.077.109.142.042.127-.169c.072.032-.05.154-.053.21-.007.115.15.338.32.13l-.067.128c.367-.079-.057.207.256.227.061,0,.109-.12.153-.045l-.155.143c.011.1.2.033.227.054s-.01.428.166.066l.077.024c-.359.347.255.169.242.417l.155-.056c-.1.167-.058.245.021.312s.162-.049.182-.035c.148.11.314.589.528.673.035.014.133-.137.154-.051l-.114.181c.205.019.355-.147.323.2l.168-.131-.146.244.161-.042c-.049.229.228.12.2.381l.126-.081c-.077.161.069.24.2.086-.07.283.169.228.363.233l-.116.186c.077.11.237.158.324.246s.278.422.344.447c.116.044.156-.215.175-.218l.083.074-.189.208c.254-.06.163.386.484.156l-.093.19.106.01-.066.133.056.05.123-.08c-.124.178-.017.169.057.24l.088-.153c.184-.057-.113.249-.014.318l.156-.144-.087.206.2-.107c.126.011-.067.178-.039.238a.408.408,0,0,0,.553,0c-.341.41-.136.263-.05.412.055.095.019.241.152.29.028.01.164-.12.21-.055.07.1-.057.492.313.344l-.082.121.521.085-.129.224c.177.046.178.3.349.354.03.009.112-.087.129-.075.048.036.014.209.065.255l.156-.144-.046.243c.387-.2.174.041.18.129a2.972,2.972,0,0,0,.358.437c.1.082.347.022.313.234-.005.031-.059.074.022.086l.065-.128.24.122-.12.127c.035.118.029.34.232.163-.141.225.217.222.233.4l.122-.077c-.1.27.19.138.281.244a.218.218,0,0,1,.027.143c-.069,0-.17,0-.164.118l-.149-.153-.2.181.07.109-.051.043-.1-.093-.051.126.147.152c-.036.062-.14-.074-.193-.089-.107-.027-.33.081-.149.279l-.115-.087c.042.361-.191-.091-.236.2-.008.057.1.124.029.152l-.121-.172c-.1-.009-.048.186-.07.2s-.4-.089-.076.145l-.03.067c-.3-.4-.18.212-.411.153l.038.157c-.148-.125-.224-.1-.295-.038s.033.163.017.179c-.117.12-.58.189-.678.375-.016.031.116.15.035.154l-.16-.14c-.036.19.107.363-.212.269l.107.183-.218-.185.026.161c-.21-.089-.132.192-.376.122l.065.134c-.143-.1-.23.021-.1.17-.259-.118-.228.119-.249.3l-.166-.144c-.11.053-.168.2-.259.262s-.419.184-.449.242c-.052.1.189.187.19.2l-.076.066-.179-.215c.033.249-.377.083-.189.427l-.171-.123-.017.1-.119-.086-.053.043.065.131c-.156-.149-.157-.047-.23.011l.137.112c.039.184-.224-.152-.3-.072l.122.173-.186-.118.083.2c-.02.117-.161-.1-.22-.081a.381.381,0,0,0-.041.527c-.362-.4-.24-.18-.386-.127-.095.034-.23-.027-.286.091-.013.024.1.176.034.207-.1.049-.457-.144-.349.233l-.107-.1-.125.475-.2-.162c-.06.159-.3.113-.362.264-.012.027.072.123.059.137-.037.039-.2-.026-.246.014l.121.175-.223-.088c.155.4-.052.157-.136.146a2.438,2.438,0,0,0-.443.258c-.086.084-.05.324-.247.252-.028-.011-.063-.068-.081.005l.115.085-.136.2-.108-.135c-.115.011-.324-.036-.174.188-.2-.174-.226.163-.4.146l.062.131c-.245-.141-.147.153-.253.219-.064.039-.167-.026-.223,0-.1.045-.189.257-.331.273l.046.139c-.124-.19-.376.027-.245.2-.282-.193-.357.3-.388.309s-.168-.069-.259-.037c-.14.05-.279.341-.422.416-.071.036-.173,0-.214.02-.025.013-.092.057-.165.108-.019-.143-.106-.37-.1-.441s.151-.111.124-.2l-.2-.013v-.175l.17.1.108-.083-.143-.033.084-.2-.208-.032.282-.12-.267-.215.28.012c0-.129-.145-.254-.112-.387.019-.07.116-.107.127-.173.016-.1-.067-.257-.048-.362.016-.081.25-.094.225-.212-.029-.137-.444.056-.414-.11l.356-.142,0-.088-.142.039.006-.135.215-.015,0-.2-.141.038-.063-.2.209.031.1-.668-.211-.011c-.036-.085.121-.1.138-.157s-.163-.14-.123-.221c.159.008.187-.434.176-.534s-.152-.065-.146-.095c.011-.069.131-.1.133-.129.006-.068-.455-.2.031-.224l.01-.334-.211.036-.063-.161.281-.009c.08-.113-.136-.087-.138-.12,0-.092.123-.134.124-.173s-.078-.069-.078-.1a1.011,1.011,0,0,0-.02-.327l-.2-.034.272-.076-.048-.207.139.029-.2-.255.213-.06a.415.415,0,0,1,.028-.581l-.135-.03,0-.087.138-.017v-.09l-.2-.083.144-.236-.138-.049.209-.013.031-.6-.14-.058.13-.021-.119-.247c.383-.046.157-.386-.045-.5.443-.148.183-.119.161-.225-.011-.055.109-.089.116-.128.166-.982.106-2.245.175-3.26a3.691,3.691,0,0,0,.11-.76l-.142-.093c.186-.183.151-.637.147-.892a5.717,5.717,0,0,1-.06-.849c.015-.12.171-.351.156-.44,0-.031-.127-.031-.14-.065-.067-.19.179-.291.164-.384l-.21-.126c.312.008.151-.293.23-.438l-.209-.032c.161,0,.228-.323.224-.4s-.127-.112-.129-.183c0-.028.138-.01.149-.043.024-.069-.06-.152-.05-.221a2.8,2.8,0,0,0,.09-.626c-.022-.229-.22-.176,0-.435.094-.113-.085-.285-.084-.364,0-.219.189-.527.085-.761.217.052.541-.2.6-.19.085.01.255.186.436.064l.02.212.467.01.034-.126.115,0,.019.135.211-.056-.019-.212c.117-.019.1.152.151.2.109.094.525.173.516-.1l.05.142c.358-.288.144.2.538.021.078-.034.007-.161.137-.129l-.037.209c.118.074.277-.1.325-.1s.425.344.266-.051l.117-.029c-.075.494.476-.026.713.179l.13-.139c.049.192.178.228.343.233.189.006.142-.139.182-.139a8.87,8.87,0,0,0,1.318.2c.057-.01.019-.189.132-.135l.049.213c.263-.111.274-.335.585-.044l.068-.208.075.284.151-.134c.173.211.391-.046.631.175l.067-.141a.166.166,0,0,0,.325-.055c.2.267.434.075.67-.041l.051.218a5.727,5.727,0,0,0,.639-.006c.189.016.761.162.866.141.185-.036-.034-.267-.013-.28l.174.007-.013.28c.243-.2.589.2.737-.175l.084.206.137-.058.056.146.117.006.065-.141c.034.218.151.144.313.156l-.051-.176c.16-.16.12.266.308.259l.04-.209.106.215.127-.2c.162-.07.1.18.2.211.138.045.676-.085.656-.383.008.584.1.328.362.395.162.041.269.179.477.135.044-.008.074-.2.193-.172.189.036.434.422.724.078l.027.145.708-.253.073.255c.259-.072.523.13.778.065.045-.011.045-.138.078-.139.094,0,.228.155.338.161l.04-.209.193.22c.258-.4.247-.075.346-.01a7.15,7.15,0,0,0,.874.123c.208,0,.436-.2.612-.008.026.028,0,.095.114.054l-.053-.141.412-.052-.014.174c.164.072.383.251.443-.015.063.265.485.041.688.173l.069-.136c.158.272.367-.009.582.019.127.016.188.137.288.158.185.039.541-.051.745.036l.1-.132c-.055.224.525.245.553.025.149.337.806.038.863.05s.14.167.3.207c.242.062.758-.048,1.029,0,.135.023.223.123.3.135a3.888,3.888,0,0,0,.841.044l-.1-.285a.463.463,0,0,0,.517.165l-.066.136.288.007.013-.2c.131,0,.235.217.306.23a2.7,2.7,0,0,0,.389.04c0-.017,0-.034,0-.05l.176.046a1.579,1.579,0,0,1-.172,0m-2.751,1.723.051-.048.24.254c-.087.023-.2-.107-.291-.207m-23.956-1-.055-.05L784,8.95c.033.087-.087.213-.18.309m26.908-.72-.029-.008.031,0s0,.007,0,.011" transform="translate(-547.199 3885.144)" fill="#fff"/><path d="M1028.569,222.031c-.086-.009-.16-.019-.208-.028-.071-.013-.175-.234-.306-.23l-.009.15c.07.113.228.3.37.215v.076c.052-.065.1-.125.154-.182" transform="translate(-766.52 3694.342)" fill="#fff"/><path d="M790.857,188.833l.013.01c.063-.076.188-.1.194-.113a.209.209,0,0,0,0-.093c-.1.073-.214.162-.211.2" transform="translate(-557.369 3723.561)" fill="#fff"/></g></svg>