<svg xmlns="http://www.w3.org/2000/svg" width="26.906" height="27.293" viewBox="0 0 26.906 27.293"><g transform="translate(-189.551 -3889.898)"><path d="M437.541,25.608c1.063-.167,2.8-.05,3.486-.7.36-.119.2.292.6.044.43-.265.137-.522.213-.793l-.344-.087c.346-.035.379-.045.306-.216-.751.2-.488-.216-.837-.312a3.887,3.887,0,0,0-1.381.044l.043.412a5.433,5.433,0,0,0-1.869.5,2.961,2.961,0,0,0-1.251.129l-.122-.24-1.325.207-.057.164-.328.048-.1-.148-.581.163.119.239c-.326.079-.324-.132-.489-.162-.335-.06-1.537.043-1.428.353l-.189-.143c-.923.506-.468-.167-1.528.227-.207.077.031.193-.348.216l.044-.262c-.359-.033-.752.248-.89.268-.121.017-1.308-.206-.736.183l-.322.088c.031-.308-.3-.245-.739-.121l-.341.1c-.109.027-.22.052-.33.073a1.328,1.328,0,0,1-.321.013,1.2,1.2,0,0,1-.145-.017.821.821,0,0,1-.128-.048,3.278,3.278,0,0,1-.351.131c-.119-.26-.436-.35-.825-.526a2.345,2.345,0,0,0-.25-.088.23.23,0,0,0-.126,0c-.057.019-.071.062-.119.037a2.894,2.894,0,0,1-.594-.472c-.1-.109-.205-.231-.3-.359a3.889,3.889,0,0,1-.267-.418,4.832,4.832,0,0,1-.383-.888c-.035-.148-.081-.285-.112-.415s-.058-.248-.09-.359c-.039-.157-.232,0-.22-.331l.226-.206c-.253-.712-.522-.673-.326-1.643l-.275-.129.3-.3-.227-.385c.167-.557-.238-1.1-.09-1.841l-.2-.148c.171-.255.019-.97-.216-.9a2.755,2.755,0,0,0-.361-1.886l.232-.212c-.05-.594-.233-1.251-.306-1.807-.07-.537-.167-2.2-.24-2.494-.128-.509-.3.178-.322.125l-.074-.5.335-.051a2.813,2.813,0,0,1-.215-1.136,2.518,2.518,0,0,0-.082-.538.766.766,0,0,0-.1-.208.463.463,0,0,0-.149-.141q.11-.14.221-.264c-.029-.112-.05-.226-.077-.343a2.037,2.037,0,0,1,.183-.149c.012-.1.018-.193.034-.288q-.07-.084-.139-.174c.143-.029.19-.118.245-.241a1.8,1.8,0,0,0,.065-.218c.024-.081.06-.167.1-.259q-.124.024-.251.057a.255.255,0,0,1,.232-.312.592.592,0,0,0,.408-.259q-.085-.1-.167-.208a2.873,2.873,0,0,1,.38-.074l0-.194.013-.192a.412.412,0,0,1,.152-.161.211.211,0,0,1,.135-.006c.084.02.161.066.26,0a2.585,2.585,0,0,0,.321-.231c.14-.091.289-.218.444-.319.3-.221.593-.418.514-.583.125.334.212.417.353.406.158-.008.4-.1.775-.126a5.579,5.579,0,0,0,1.393-.065c.121-.031.149-.265.495-.294.546-.046,1.359.294,2.075-.247l.119.158,1.927-.63.285.266c.712-.207,1.52-.093,2.221-.289.126-.035.088-.184.179-.2.265-.046.7.076,1.005.031l.05-.265.614.168c.608-.587.678-.205.974-.174.116.012,2.191-.21,2.514-.264.08-.015.131-.021.193-.035s.12-.029.181-.046c.122-.03.247-.047.372-.068a1.679,1.679,0,0,1,.366.014.865.865,0,0,1,.316.155c.053.049-.011.116.24.136q-.037-.1-.081-.2a3.477,3.477,0,0,1,.938.338l-.123.17a3.061,3.061,0,0,1,.21.234c.063.088.131.166.194.237a.54.54,0,0,0,.189.163.26.26,0,0,0,.215.012.35.35,0,0,0,.052.285c.046.113.143.223.216.361.038.068.089.132.122.206l.1.217a1.087,1.087,0,0,1,.062.216.634.634,0,0,1,.019.2q.095.05.192.107a.622.622,0,0,0-.059.165.859.859,0,0,0-.011.194,1.611,1.611,0,0,0,.082.4,4.491,4.491,0,0,1,.243.861c.04.364-.072.573-.05.865.04.534.314,1.515.306,2.12l.2.241c-.289-.088-.042,1.558.229,1.573-.326.525.333,2.294.344,2.458a5.766,5.766,0,0,0-.1.9c.04.705.412,2.13.484,2.91.036.389-.04.67-.016.9.017.166.082.728.153,1.267.054.406.009.783.031.846a3.363,3.363,0,0,0,.36-.23,4.362,4.362,0,0,0-.262.534,1.261,1.261,0,0,0-.041.133c-.017.045-.033.091-.046.139s-.026.1-.036.155l-.046.169q-.051-.094-.1-.181c-.042.094-.075.191-.119.283s-.093.183-.147.271l.2.137a.654.654,0,0,1-.337.261l-.174.068a.448.448,0,0,0-.127.061,4.281,4.281,0,0,1-.81.575c-.081.054-.169.089-.248.132-.04.021-.078.043-.114.064s-.074.033-.108.051a1.008,1.008,0,0,0-.17.106.245.245,0,0,0-.093.093l-.235-.015c.345.423.568.745.371,1.3l.234-.175c.074-.063.145-.131.214-.2.083.125-.11.3.318.152a5.034,5.034,0,0,0,1.137-.644,6.52,6.52,0,0,0,.943-.911c.032.1.058.2.084.3a6.354,6.354,0,0,0,.788-1.38,3.881,3.881,0,0,0,.283-1.536c-.021-.357-.151-.235-.177-.382a1.686,1.686,0,0,1,0-.8c.05-.16.121-.241.12-.279-.015-.386-.385-1.609-.428-1.94-.032-.244.111-.464.029-.76l-.242.019-.1-.646.256.3.077-.344-.186-.07-.017-.747-.263-.046.259-.543-.44-.7.335-.051a14.313,14.313,0,0,1-.359-1.386c-.02-.263.071-.434.046-.679-.038-.364-.232-.927-.27-1.315-.031-.309.237-.433.138-.861-.115-.5-.487.357-.55-.259l.332-.645-.048-.329-.142.192-.073-.5.243-.128L444.5,6.3l-.141.192-.194-.731.263.044-.138-1.247c-.007-.054-.009-.1-.019-.161l-.031-.19c-.024-.126-.037-.255-.072-.379l-.1-.374c-.036-.124-.089-.243-.134-.365l-.235.1a1,1,0,0,1-.132-.4.838.838,0,0,0-.067-.329,1.251,1.251,0,0,0-.324-.32,1.406,1.406,0,0,1-.385-.348c.073-.057-.223-.467-.667-.814C442,.89,441.887.8,441.769.728s-.242-.138-.353-.2A5.421,5.421,0,0,0,440.881.3c-.391-.108-.3.1-.429.055A5.808,5.808,0,0,1,439.9.08a1.674,1.674,0,0,0-.553.153C439.158.3,439,.29,438.873,0c-.546.042-.907.114-1.328.173l.2.225-.567.17-.134-.323c-.443-.027-.272.211-.39.232a2.9,2.9,0,0,1-.681-.043c-.1.014-.227.132-.343.151a11.434,11.434,0,0,0-1.2.217l-.06.256-.372-.273-.742.179.059-.18-.869.383-.292-.214a4.157,4.157,0,0,1-2.148.311l-.067.177-.317.047-.111-.152-.332.051-.237.281-.917-.029-.133.19-.12-.238-2.211.319-.164.2-.123-.139-.867.284a.47.47,0,0,0-.365-.165,1.564,1.564,0,0,0-.571.085,2.058,2.058,0,0,0-1.016.636,1.591,1.591,0,0,0-.481-.045.384.384,0,0,0-.214.065c-.085.073-.1.187-.284.332s-.409.166-.554.279a5.142,5.142,0,0,0-1.71,3.126c-.017.158-.041.317-.048.477s0,.322,0,.483l.045.483c0,.043.009.076.013.107l.014.1.028.194.234,1.56c.318,2.087.652,4.186.912,6.067.123.893.129,1.908.322,2.836l.221.291a15.425,15.425,0,0,0,.355,3.333l.03.174.008.044.012.055.025.111a4.423,4.423,0,0,0,.118.449c.053.149.1.3.167.451s.139.3.214.444A6.224,6.224,0,0,0,423.12,25.8c.1.089.224.208.36.337s.294.257.457.371a3.351,3.351,0,0,0,.871.481c.138.037.158-.112.311-.082a9.511,9.511,0,0,1,1.028.256,3.028,3.028,0,0,0,.4.1,1.039,1.039,0,0,0,.348.024l.256-.154a1.824,1.824,0,0,0,.23-.157c.081.37,1.131,0,1.695.009l.046-.263c.042.189,1.267.074,1.538.027s.367-.215.626-.258c.1-.017.087.155.213.148.263-.013.544-.16.8-.19.767-.091,1.525-.11,2.336-.265.837-.161.576-.362,1.6-.262a4.9,4.9,0,0,0,1.308-.312m-4.359-.587.06.418c-.381,0-.39-.207-.389-.37Z" transform="translate(-229.615 3889.898)" fill="#fff"/><path d="M501.757,65.074c-.007-.079-.013-.164-.026-.253a2.587,2.587,0,0,0-.039-.28,1.962,1.962,0,0,0-.192-.575,1.393,1.393,0,0,0-.169-.248,1.223,1.223,0,0,0-.212-.185.6.6,0,0,0-.493-.077c-.1-.031-.077-.108-.066-.178s.007-.132-.149-.1a.386.386,0,0,0-.292.253,2.752,2.752,0,0,1-.169.36c.021.061.039.12.054.178-.107-.071-.12-.071-.175.1.268.031,0,.314-.015.48a.322.322,0,0,0,.005.091c.006.033.008.073.016.1.018.059.027.112.074.1l.333-.246a.144.144,0,0,0,.046.147.651.651,0,0,0,.148.114c.053.039.119.076.161.112s.074.066.076.082c.008.041-.041.112-.067.183a.35.35,0,0,0-.023.11.226.226,0,0,0,.052.122q-.129,0-.258-.008l-.01.087c-.006.029-.015.057-.021.085a1.043,1.043,0,0,1-.058.166l.128.091-.053.085-.145-.07a1.134,1.134,0,0,1-.038.177q.1.076.207.148c-.051.111-.2-.05-.268-.055a.256.256,0,0,0-.129.025.523.523,0,0,0-.154.1.2.2,0,0,0-.017.316l-.153-.092c-.045.512-.27-.08-.431.358-.031.086.124.151,0,.214l-.136-.216c-.152.014-.133.286-.172.317s-.6-.016-.165.232l-.068.108c-.333-.5-.347.358-.691.339l.01.218a.31.31,0,0,0-.449.027c-.15.128,0,.227-.03.256-.215.215-.981.417-1.2.709-.036.048.132.188,0,.213l-.206-.162c-.122.28.044.494-.429.435l.107.237-.28-.213-.015.225c-.3-.078-.276.307-.636.264l.056.176c-.191-.114-.372.084-.216.27a.274.274,0,0,0-.351.1.51.51,0,0,0-.043.083c-.009.025-.018.053-.027.083a.831.831,0,0,1-.07.182q-.085-.1-.16-.212c-.037.012-.076.021-.113.036a1.119,1.119,0,0,1-.113.049.541.541,0,0,1-.236.055.809.809,0,0,1-.332-.138c-.058-.035-.106-.081-.147-.111a.215.215,0,0,0-.088-.061c-.064-.018-.111.047-.136.124s-.026.161-.038.163a1.4,1.4,0,0,1-.129-.1l.223-.255a.14.14,0,0,1-.158-.04.5.5,0,0,1-.065-.143.161.161,0,0,0-.069-.118.325.325,0,0,0-.223-.027,1.92,1.92,0,0,1,.211-.143c-.031-.024-.064-.05-.1-.079l.079-.037.08-.046-.02-.121-.18-.032c.249-.087.137-.189.114-.356l-.2.094c-.224-.126.288-.186.238-.376l-.257.009.231-.159-.27-.08c-.119-.148.191-.146.207-.25.023-.151-.251-.666-.6-.579.69-.143.367-.179.387-.458.013-.175.152-.315.054-.516-.021-.043-.249-.031-.248-.158,0-.2.4-.535-.062-.755l.168-.059-.434-.669.29-.13c-.135-.249.056-.562-.069-.808-.023-.044-.173-.018-.18-.051-.02-.1.142-.267.128-.379l-.257,0,.226-.243c-.521-.181-.137-.238-.077-.351a2.845,2.845,0,0,0,.008-.433c0-.1-.007-.212-.01-.3,0-.011,0-.022,0-.032l0-.015,0-.025a.143.143,0,0,0,0-.034.262.262,0,0,0-.04-.078.32.32,0,0,1-.055-.089c-.03-.062-.01-.125.1-.127.035,0,.106.043.078-.024q-.08-.027-.164-.048a.59.59,0,0,1,.022-.125l.017-.065.027-.062.155.141c.054-.01.14.019.174.009s.043-.041-.03-.189c.1.129.14.1.191.075s.112-.081.159-.012a1.706,1.706,0,0,1,.021-.17c.045.163.069.152.121.118a.371.371,0,0,1,.088-.061.189.189,0,0,1,.048-.017.078.078,0,0,1,.059.011c.119.059.134.215.225.271.167.1.555.111.723.276l.15-.12c-.141.238.423.444.538.2.015.431.784.3.835.33s.073.235.211.33a1.634,1.634,0,0,0,.5.164,1.988,1.988,0,0,1,.517.171c.123.074.169.217.242.259a3.5,3.5,0,0,0,.8.343l.016-.359c.093.255.2.353.438.367l-.12.132.279.108.1-.226c.13.041.14.327.2.368.164.1.723.386.882.205l.075.1a2.66,2.66,0,0,1,.466-1.271l-.265.163c.043-.14.157-.206.013-.258a4.09,4.09,0,0,1-.814-.352l.152-.21c-.308-.078-.629-.332-.928-.4-.112-.024-.13.117-.18.111-.274-.035-.221-.361-.244-.379-.114-.092-.609-.092-.72-.144-.081-.038-.084-.226-.2-.233l-.1.223-.226-.075.191-.153-.066-.16-.1.149-.219-.18-.122.225-.047-.376-.379.214.123-.315c-.169-.051-.383.057-.542-.039-.083-.05-.094-.178-.175-.219-.119-.061-.359-.033-.485-.1-.1-.053-.028-.328-.19-.35-.188-.026-.1.534-.3.43l-.05-.47-.113-.043,0,.179-.171-.064.061-.254-.257-.091,0,.179-.143-.008-.072,0c-.023,0-.046,0-.084-.006l.13-.225a2.476,2.476,0,0,0-1.473-.17l.061.247c-.152.083-.261-.064-.38-.04-.067.013-.109.095-.154.171a.378.378,0,0,1-.169.184c-.026-.041-.093-.04-.184-.009a1.177,1.177,0,0,0-.3.187,1.714,1.714,0,0,0-.413.537c-.075.183.111.192.079.247-.065.124-.222.159-.243.214-.028.072.093.2.141.295s.036.161-.259.188l-.01.184c0,.061,0,.121.008.181l.015.177.016.113.242-.093.113.2-.332.075c-.07.169.182.086.192.129.026.123-.115.207-.108.26,0,.037.109.075.116.118a1.54,1.54,0,0,0,.1.433l.247,0-.306.162.106.265-.172-.008.294.3-.24.128a.616.616,0,0,1,.1.785l.169.01.016.116-.16.055.018.121.255.065-.117.349.176.033-.245.067.128.8.181.043-.148.059.207.3c-.44.156-.08.553.189.65-.482.306-.183.2-.129.34.029.071-.1.145-.1.2.018.338.058.7.11,1.064l.01.069c0,.024,0,.04.015.085q.023.115.051.23a1.691,1.691,0,0,0,.074.228,1.76,1.76,0,0,0,.1.223,2.505,2.505,0,0,0,.6.773,2.548,2.548,0,0,0,3.079.208l.091-.061c.027-.019.068-.046.079-.055l.105-.078a5.585,5.585,0,0,0,.882-.56l-.015-.21c.339.013.785-.414,1.05-.639a9.013,9.013,0,0,1,.842-.792c.133-.094.492-.162.574-.257.027-.032-.071-.142-.045-.185.139-.233.439-.1.522-.2l-.041-.3c.243.289.419-.129.632-.189l-.136-.217c.125.148.512-.088.584-.157s.011-.216.081-.28c.028-.026.122.114.165.094.09-.041.108-.192.184-.245.115-.081.241-.148.363-.221a.431.431,0,0,0,.052-.034l.072-.056c.047-.038.094-.078.14-.12a1.727,1.727,0,0,0,.242-.3.9.9,0,0,0,.134-.466.425.425,0,0,1,.065-.178,2.978,2.978,0,0,1,.2-.3.581.581,0,0,0,.042-.448c-.019-.076-.04-.148-.061-.211a.709.709,0,0,1-.047-.159m-1.707,1.239.267.327c-.139.047-.265-.121-.36-.251Z" transform="translate(-292.203 3836.879)" fill="#fff"/></g></svg>