<svg xmlns="http://www.w3.org/2000/svg" width="33.882" height="27.088" viewBox="0 0 33.882 27.088"><g transform="translate(-140 -3890.001)"><path d="M33.073,23.941l-.153-.338a16.188,16.188,0,0,0,.324-3.379c.037-.939-.021-2.1.069-3.2.036-.45.261-1.336.259-1.676,0-.114-.145-.1-.154-.235a6.631,6.631,0,0,1,.256-1.464l-.228-.457c.369,0,.228-1.118.346-1.676l-.243-.1c.095,0,.175-.308.233-.653.03-.171.052-.353.069-.508.007-.077.015-.148.02-.21s.007-.126.01-.164a1.233,1.233,0,0,0-.014-.24,1.952,1.952,0,0,0-.06-.209,3.2,3.2,0,0,1-.127-.438c-.022-.141.144-.117.115-.3a3.157,3.157,0,0,0-.519-1.034,3.755,3.755,0,0,0-1.107-1.185c-.058-.039-.116-.078-.175-.114l-.186-.1a3.01,3.01,0,0,0-.39-.17A3.491,3.491,0,0,0,31,5.97c-.07-.015-.142-.025-.214-.036l-.109-.013c-.035-.005-.077-.01-.1-.011-.861-.056-.656.2-1.641-.15a5.112,5.112,0,0,0-1.362-.03c-1.074-.1-2.727-.636-3.57-.214a.392.392,0,0,0-.045-.184c-.03-.053-.158-.009-.176-.03-.1-.118.206-.215.21-.23.026-.077-.2-.268-.207-.328s.153-.113.106-.16l-.234.042-.033-.116.213.02.11-.082-.17.014.061-.149-.247.032.152-.077c.025-.011.05-.026.076-.037L23.9,4.21a1.5,1.5,0,0,1-.166,0L23.654,4.2a.633.633,0,0,1-.084-.034l.329-.03a.364.364,0,0,0-.114-.168.251.251,0,0,1-.095-.163c0-.067.1-.136.09-.2-.017-.1-.17-.2-.2-.291-.018-.075.212-.225.118-.314-.054-.051-.154.036-.251.111s-.189.143-.214.076a4.1,4.1,0,0,0,.255-.354.861.861,0,0,0-.054-.072l-.1.135-.081-.1.176-.184a1.882,1.882,0,0,0-.148-.149l-.083.148a1.559,1.559,0,0,0-.2-.07l.181-.174a2.705,2.705,0,0,0-.543-.464l-.11.223c-.094.008-.042-.171-.088-.209s-.2.137-.259.073c.032-.092-.063-.169-.183-.221a.748.748,0,0,0-.183-.051.451.451,0,0,0-.12-.012c-.062.01-.058.178-.078.171-.047-.014-.058-.156-.076-.159-.046-.007-.178.533-.15-.04l-.227-.018,0,.248-.115.072.02-.331c-.071-.1-.073.159-.1.161-.063,0-.081-.148-.107-.15s-.054.091-.075.09a.441.441,0,0,0-.226.017L20.526,2,20.5,1.684l-.144.053.032-.162-.193.228-.019-.252c-.134.144-.307.182-.394-.046l-.035.16-.059,0,0-.163-.062,0-.075.232L19.4,1.551l-.047.162.011-.247-.4-.047-.054.164,0-.153-.18.133c.005-.452-.249-.191-.343.044-.059-.522-.064-.217-.138-.193-.04.011-.051-.129-.077-.138a14.423,14.423,0,0,0-2.212-.269.543.543,0,0,1-.124-.037L15.771.942,15.74.928A.153.153,0,0,0,15.7.912a1.453,1.453,0,0,0-.212-.043.706.706,0,0,0-.215.014c-.028.058-.055.119-.08.178a.41.41,0,0,0-.209-.087.9.9,0,0,0-.266.018,1.852,1.852,0,0,0-.478.2,5.268,5.268,0,0,0-.673.608c-.094.074-.395.161-.434.263-.013.031.108.108.1.148-.019.1-.1.144-.18.175s-.168.054-.178.105c.059.075.12.147.182.215-.173-.069-.239-.007-.278.088a.509.509,0,0,0-.025.075l-.012.053A.125.125,0,0,1,12.7,3l.232.088c-.181-.052-.306.144-.313.194s.129.115.12.163c0,.018-.158-.036-.176-.018-.037.04.044.122.026.163-.061.129-.186.235-.2.39s.224.188-.06.293c-.123.046.054.216.043.268a.4.4,0,0,1-.086.143c-.756-.07-1.49-.131-2.248-.258l.194-.227c-.875-.048-1.951-.275-2.792-.311-.317-.014-.228.131-.365.129A2.537,2.537,0,0,1,6.82,4a2.3,2.3,0,0,1-.235-.032,3.32,3.32,0,0,1-.343-.084,2.775,2.775,0,0,0-.323-.126,2.791,2.791,0,0,0-1.153.406,4.937,4.937,0,0,0-.9.72,2.684,2.684,0,0,1-.351.244,1.008,1.008,0,0,0-.33.352l.187.147a3.663,3.663,0,0,0-.336.668,3.037,3.037,0,0,1-.024-.441,3.432,3.432,0,0,0-.281.316q.058.088.117.172a3.947,3.947,0,0,0-.292.833c.076.044.155.082.231.122l-.4.457.206.8-.329-.04c-.064.484.037.947-.074,1.445-.058.262-.2.4-.243.647-.072.365-.058.965-.136,1.352-.063.308-.351.358-.385.8-.039.513.561-.215.438.4l-.5.538L1.3,14.03l.191-.149-.08.5-.265.059-.112.747.189-.148-.035.763-.234-.113-.481,2.5.247.035c0,.319-.2.4-.25.595-.054.225.12.518.029.825-.185-.033-.455,1.623-.5,2a.505.505,0,0,0,.008.188.239.239,0,0,0,.053.116c.04.043.081.043.075.13a4.52,4.52,0,0,1-.048.455.776.776,0,0,0-.013.29c.045.19.265.373.424.529a.458.458,0,0,1,.143.6,2.759,2.759,0,0,0,1.613.908,2.381,2.381,0,0,1-.183-.294,2.832,2.832,0,0,0,.4.035l.3-.009.051.337c.428.137.32-.132.44-.122a3.009,3.009,0,0,1,.659.209c.1.011.257-.067.376-.057a12.086,12.086,0,0,0,1.228.091l.123-.227.3.35.773.014-.1.156.948-.146.234.275a4.373,4.373,0,0,1,2.187.239l.11-.152.322.035.072.172.339.034.3-.207.892.255L12.2,25.7l.058.254,2.25.248.211-.147.087.162.923-.054c.2.473,1.46.324,1.863.123.578.577.46.259.856.271.208.005.34.16.487.182,1.852.272,3.966.5,6.095.72l3.173.319,1.537.161a2.864,2.864,0,0,0,2.126-.631,3.071,3.071,0,0,0,.709-.813c.045-.081.091-.163.133-.246s.075-.174.11-.263.057-.181.084-.273.042-.2.06-.305a12.415,12.415,0,0,0,.106-1.466M31.753,7.274c.3.281.128.427.013.528a2.665,2.665,0,0,0-.243-.185ZM13.744,4.09l-.017.059-.4-.121c.07-.052.264.012.413.062m-.7,1.448a.186.186,0,0,0-.016.033.168.168,0,0,1,0-.03ZM31.716,22.988c-.269.513.009,1.139-.28,1.842l.16.192a.529.529,0,0,0-.119.238,1.022,1.022,0,0,0-.065.227c-.025.155-.03.308.08.353a4.287,4.287,0,0,0-.619.5,1.915,1.915,0,0,1-.733.45,1.752,1.752,0,0,1-.152-.253L29.9,26.53l-.115-.014-.234-.026c-.158-.014-.317-.025-.477-.033-.318-.019-.631-.034-.912-.068-.545-.067-2.207-.39-2.509-.393-.533,0,.1.326.041.337l-.5-.053.033-.33c-.7.179-1.708-.395-2.131.018l-.244-.268-.4.033-.165-.188-.34-.037-.185.15c-.1-.267-.44-.21-.91-.266l.149.222c-.463.148-.349-.347-.9-.387l-.113.237-.311-.283-.364.21c-.466.043-.3-.24-.572-.3-.388-.086-1.864-.075-1.9.253-.035-.655-.307-.389-1.048-.53a5.788,5.788,0,0,0-1.383-.285c-.128,0-.212.214-.559.156-.548-.092-1.261-.616-2.1-.281l-.077-.18-2.05.117-.213-.322c-.75.02-1.517-.29-2.254-.278-.133,0-.132.152-.226.145-.27-.023-.664-.245-.978-.279l-.116.238-.56-.312c-.744.405-.718.026-1-.078-.056-.02-.607-.107-1.186-.191L2.662,23.2a.481.481,0,0,1-.075-.016l-.06-.011-.106-.033a1.5,1.5,0,0,1-.261-.134,1.7,1.7,0,0,1-.441-.332.445.445,0,0,1-.07-.516c.015-.023.039-.03.059-.045a.045.045,0,0,0,.016-.036.1.1,0,0,0,0-.033c0-.017,0-.059,0-.1l-.094.074-.082.039,0-.043c0-.019,0-.048,0-.071l.013-.148.026-.3.052-.591.2.042c.152-.47.453-1.095.159-1.277.34-.173.244-1.4.481-1.973l-.135-.2c.389-.45.137-1.058.256-1.678.071-.365.238-.538.3-.827.12-.531.154-1.559.341-2.144l-.118-.29c.244.164.5-1.5.251-1.591.461-.422.368-2.32.406-2.483a6.281,6.281,0,0,0,.365-.85c.009-.043.019-.09.031-.139s.017-.089.026-.134c.017-.082.023-.181.047-.261l.028-.133c.011-.044.028-.087.042-.133a2.1,2.1,0,0,1,.1-.274,1.893,1.893,0,0,1,.69-.826.674.674,0,0,1,.182-.08.7.7,0,0,1,.168-.038c.054-.007.1-.012.146-.022a.581.581,0,0,0,.127-.019,2.549,2.549,0,0,1,.327-.072,2.493,2.493,0,0,1,.253-.021l.134,0c.047,0,.093.009.139.01l.068,0,.037,0,.049.005.2.023.353.037a2.091,2.091,0,0,0,.4.017l-.3-.363a2.812,2.812,0,0,0,1.5.33L8.706,5.7l.834.083.037-.238c.38.029.683.317.889.352a7.7,7.7,0,0,0,2.507.124l.291.091a1.726,1.726,0,0,1-.232-.516.431.431,0,0,0,.152.052c-.045-.162.29,0,.443-.014.1-.011.274-.135.218-.2l-.386-.121c.2-.056-.12-.369-.1-.4s.237-.072.116-.2l.243.058.059-.24-.14-.057.017-.057.154.032-.041-.128-.242-.057c-.011-.067.181,0,.24-.014.118-.026.248-.216-.058-.3l.166.02c-.291-.278.241-.011.078-.272-.032-.05-.183-.056-.133-.113l.232.088c.1-.038-.087-.176-.08-.2s.434-.109-.028-.154l-.021-.069c.277.094.279.046.245-.034s-.09-.208.039-.2q-.063-.065-.121-.135c.205.091.263.072.3.017s-.1-.153-.089-.167c.033-.059.163-.093.279-.115s.225-.032.265-.1c.013-.024-.095-.2-.023-.174.042.072.083.143.123.216.017-.082.007-.191.023-.242s.063-.051.164.093c-.01-.082-.02-.164-.028-.246.037.105.071.21.1.317.008-.057.017-.117.03-.173.054.115.087.089.13.07s.092-.04.134.089l.034-.168c.006.2.145.169.166-.068.08.314.221.089.357-.045l0,.256c.1.047.237-.024.337-.005s.384.192.442.167c.1-.042.011-.312.022-.328l.091.008-.034.33c.149-.241.289.239.406-.205l.023.244.078-.068.016.17.062.007.047-.163c0,.254.066.169.15.182L17.68,2.57c.1-.186.034.314.135.306l.042-.246.035.253.087-.24c.093-.082.036.213.082.249.066.052.342-.086.382-.4-.05.629.026.344.154.42.08.049.124.211.238.16.023-.012.058-.231.119-.2.1.043.186.5.375.094l0,.171.4-.3.013.3c.143-.084.262.153.4.078.025-.014.038-.163.055-.164.05,0,.1.183.162.189L20.4,2.99l.08.258c.177-.466.139-.088.184-.011a1.722,1.722,0,0,0,.449.147c.109,0,.251-.23.323-.007.011.032-.007.11.056.062l-.013-.165a1.111,1.111,0,0,0,.173-.061l-.041.2c.037.088.022.288.135-.006-.038.152-.011.161.026.165s.093-.012.079.065l.1-.132c-.061.146-.044.151,0,.13s.122-.06.142-.031-.064.147-.061.177.042.04.075.06.063.047.035.094c.05-.02.1-.039.154-.057-.232.123-.183.222.066.152-.173.086-.165.124-.108.163a.88.88,0,0,0,.1.056c.029.022.051.021.051.049s-.049.065-.1.118a.6.6,0,0,0-.095.167c-.035.137.172.369.16.518-.007.074-.107.143-.109.186,0,.062.017.418.079.436L22.66,5.6c-.173.128-.208.2-.109.3h-.167l.035.147.237-.043c.024.063-.214.172-.218.212-.012.1,0,.42.231.415L22.62,6.7a5.2,5.2,0,0,1,.857-.228c.078.11.039.261.221.362a4.1,4.1,0,0,0,1.367.3l.061-.4a5.678,5.678,0,0,0,1.96-.007,3.1,3.1,0,0,0,1.261.189l.061.259,1.353.132.1-.141.334.036.057.164c.1,0,.209,0,.292,0l.132,0c.045,0,.088.009.133.014,0-.088-.008-.174-.015-.262.164.027.223.09.251.161s.033.138.09.186c.113.109.381.3.592.495s.4.366.519.256a2.072,2.072,0,0,1-.06.218.81.81,0,0,1,.3.365.285.285,0,0,1-.008.217.757.757,0,0,0-.047.235,1.768,1.768,0,0,0,.016.2c.005.039.013.084.024.135s.016.109.026.173c.032.2.191.008.137.384l-.241-.1a2.64,2.64,0,0,0,.078.942c-.007.124-.457,1.247.028.77l.021.339c-.577-.2-.026,1.383-.293,2.082l.15.37c-.233.152-.291.529-.315,1.007-.029.55.149.407.144.524-.028.843-.43,2.85-.392,3.839.005.164.22.05.144.377l-.258.153c.1.761.365.783-.015,1.7l.238.19-.346.224Z" transform="translate(140 3889.135)" fill="#fff"/><path d="M111.184,80.4c.052-.1.118-.218.188-.341a2.531,2.531,0,0,0,.2-.385.626.626,0,0,0-.12-.755c-.039-.162.317-.015.165-.224s-.469-.143-.711-.216l-.15.1c.035-.122.032-.135-.146-.137.046.278-.3.117-.457.2a.615.615,0,0,0-.169.184c-.058.078-.1.159-.07.2l.388.112a.2.2,0,0,0-.084.162.7.7,0,0,0,.011.213,1.847,1.847,0,0,1,.064.322c-.046.078-.3.145-.241.372l-.231-.094-.223.383.107.108-.069.09-.141-.074-.061.205.21.134c-.049.114-.2-.026-.274-.021-.155.014-.469.247-.248.458l-.154-.083c-.005.245-.075.23-.151.2s-.169-.073-.249.13c-.033.08.112.155-.012.207l-.118-.221c-.134,0-.146.25-.188.278-.018.011-.159-.018-.243-.012s-.128.039.056.207l-.086.084c-.108-.273-.2-.215-.312-.1s-.261.269-.408.2c-.02.069-.041.136-.065.2a.3.3,0,0,0-.4-.166c-.174.039-.1.191-.134.2a1.106,1.106,0,0,1-.278.009,3.082,3.082,0,0,1-.356-.059l-.181-.032c-.059-.015-.117-.029-.172-.039a.781.781,0,0,0-.293-.007c-.054.007-.036.221-.14.146l-.021-.255c-.129.053-.21.144-.289.176s-.156-.011-.263-.207l-.122.224q0-.17.014-.338c-.06.044-.119.076-.181.113-.043-.144-.133-.158-.235-.177a.284.284,0,0,1-.255-.217l-.129.126c.021-.205-.2-.289-.313-.083-.01-.188-.09-.247-.2-.279a2.378,2.378,0,0,0-.392-.034l.115-.232c-.116-.163-.35-.241-.462-.4a1.9,1.9,0,0,1-.224-.389c-.037-.079-.073-.154-.106-.213a.5.5,0,0,0-.07-.125c-.132-.121-.244.2-.266.2l-.09-.15.287-.166a.219.219,0,0,1-.163-.118,1.057,1.057,0,0,1-.053-.194c-.031-.128-.078-.229-.307-.208q.1-.087.195-.169l-.113-.094.14-.108a.735.735,0,0,1-.032-.1l-.175-.006c.235-.109.122-.182.089-.328l-.187.1c-.231-.1.276-.184.232-.344l-.25.009q.115-.072.231-.138c-.087-.025-.176-.051-.262-.08-.1-.143.2-.12.231-.207a.618.618,0,0,0-.1-.347.455.455,0,0,0-.377-.267c.344.011.44-.005.46-.056s-.022-.134.028-.248a.872.872,0,0,1,.135-.181.262.262,0,0,0,.086-.212c0-.04-.212-.119-.164-.222.041-.08.195-.137.289-.216a.224.224,0,0,0,.089-.146.342.342,0,0,0-.077-.236l.165.049a2.3,2.3,0,0,1,0-.354c.009-.118.015-.242.031-.365q.146.054.289.111a.474.474,0,0,1,.224-.264.513.513,0,0,0,.248-.237c.015-.041-.09-.143-.07-.165.061-.063.275-.015.345-.077l-.137-.211c.1.022.2.056.3.086-.058-.256-.022-.314.034-.3s.138.092.2.1a2.146,2.146,0,0,0,.343-.13c.17-.053.339-.117.384-.138a1.039,1.039,0,0,0,.223-.191.183.183,0,0,1,.268-.013c.031.025.035.106.111.031l-.089-.147.169-.085c.057-.028.116-.046.175-.07l.028.2a1.486,1.486,0,0,0,.241.093c.072.009.126-.016.138-.177.043.153.144.154.261.133s.253-.037.335.037l.069-.161c.061.155.134.169.224.136s.194-.1.286-.068.128.19.2.231a.472.472,0,0,0,.135.038c.051.014.107.025.165.039a.454.454,0,0,1,.289.142l.141-.11c-.075.112,0,.22.1.27a.237.237,0,0,0,.32-.033.247.247,0,0,0,.05.227.439.439,0,0,0,.195.129c.079.028.163.05.225.073a.427.427,0,0,1,.119.046c.029.05-.031.218.025.344a.515.515,0,0,0,.116.147c.026.025.055.05.085.075l.084.084c.058.057.118.114.17.17a.6.6,0,0,1,.106.173c.039.111-.013.226,0,.291.011.047.069.2.122.338a.684.684,0,0,0,.13.295q.141-.092.281-.192c-.126.2-.166.317-.04.478l-.172-.012.032.112.019.115.238-.035c.028.112-.21.237-.214.293a1.332,1.332,0,0,0-.005.38c0,.147.04.286.15.328l-.064.08a2.854,2.854,0,0,1,1.318.079q-.117-.108-.235-.206c.143-.007.24.084.243-.078a3.948,3.948,0,0,0-.019-.466c0-.077-.007-.154-.006-.232s-.009-.156-.007-.236l.254.033c-.05-.169-.051-.366-.091-.556a1.558,1.558,0,0,0-.151-.532c-.061-.112-.174-.028-.2-.073a.3.3,0,0,1-.02-.312c.039-.083.1-.142.1-.158a.945.945,0,0,0-.233-.343,2.476,2.476,0,0,1-.271-.293c-.046-.085.041-.242-.062-.323l-.2.134-.159-.2q.119-.012.24-.02l.017-.185-.157.076-.132-.283-.206.142c.036-.121.074-.25.1-.373q-.23.008-.448.029l.222-.246c-.152-.134-.409-.1-.547-.251-.073-.079-.06-.209-.143-.27a.929.929,0,0,0-.252-.111c-.048-.016-.1-.032-.14-.05a.547.547,0,0,1-.121-.054c-.105-.068-.016-.332-.2-.382-.106-.029-.13.1-.158.226s-.058.228-.165.172q-.028-.231-.073-.468l-.131-.049.012.179c-.065-.023-.128-.049-.193-.07l.039-.252-.309-.077.028.177c-.108,0-.213,0-.319.008l.084-.238-.522-.127c-.176-.036-.356-.054-.535-.079l-.008.249c-.129.038-.171-.141-.257-.155s-.2.207-.33.172c0-.046-.048-.082-.118-.1a1.039,1.039,0,0,0-.263-.02,2.681,2.681,0,0,0-.29.025,1.484,1.484,0,0,0-.2.052c-.134.049-.044.2-.091.205-.106.016-.2-.1-.244-.093s-.078.169-.118.252-.1.1-.23-.158c-.083.032-.168.06-.249.1l-.24.115.168.194-.179.177-.183-.28c-.207.008-.032.208-.074.235-.117.08-.257-.007-.311.024-.037.022-.037.133-.077.161a1.948,1.948,0,0,0-.383.331l.118.21q-.148-.08-.3-.155l-.191.262-.087-.144a3.766,3.766,0,0,0-.094.446q-.127-.046-.256-.089a1.513,1.513,0,0,1-.075.229.978.978,0,0,1-.113.216.741.741,0,0,1-.166.172.7.7,0,0,1-.211.116l.116.12-.07.113-.159-.052-.073.124c.047.072.1.146.155.217q-.152.128-.307.267l.122.127-.241-.067-.17.446c-.058.148-.089.305-.133.458l.143.117-.159.007c.015.134.054.27.082.4a.26.26,0,0,0-.268.337.735.735,0,0,0,.276.424c-.266.123-.309.18-.293.217s.1.062.121.144-.116.155-.118.219a4.846,4.846,0,0,0,.037.618c.027.211.082.423.131.64.072.21.137.427.23.635a5.174,5.174,0,0,0,.315.61,6.423,6.423,0,0,0,1.806,1.926c.164.105.317.251.489.378a1.846,1.846,0,0,0,.564.29l.194-.111c.2.328.958.447,1.367.474a4.133,4.133,0,0,0,.658-.027c.115-.012.233-.035.35-.047s.235-.016.351-.028c.186-.015.6.1.74.035.046-.019,0-.157.052-.186.263-.151.515.049.656-.022q.045-.151.082-.3c.075.173.2.157.341.1a3.078,3.078,0,0,1,.414-.188l-.09-.235c.049.081.195.068.343.023a1.049,1.049,0,0,0,.335-.171c.092-.077.045-.227.131-.3.035-.028.123.11.172.083.1-.058.134-.222.22-.29.136-.1.263-.207.4-.316a2.293,2.293,0,0,0,.19-.176,1.8,1.8,0,0,0,.158-.216c.2-.323-.059-.363.377-.6a.257.257,0,0,0,.1-.118.606.606,0,0,0,.034-.167,1.234,1.234,0,0,1,.029-.283m-1.874.7.3.281c-.133.069-.273-.082-.38-.2Z" transform="translate(51.818 3826.401)" fill="#fff"/><path d="M96.23,64.343c.033-.073.079-.147.119-.228s.083-.165.128-.252a4.078,4.078,0,0,0,.256-.54,1.019,1.019,0,0,0-.056-1.025c-.029-.224.321-.041.18-.321s-.463-.178-.7-.27L96,61.864c.044-.179.042-.2-.137-.192.026.406-.312.192-.477.33a1.113,1.113,0,0,0-.188.3.526.526,0,0,0-.1.313l.388.115a.42.42,0,0,0-.107.248,1.412,1.412,0,0,0-.023.3,3.39,3.39,0,0,1,.017.447c-.064.115-.357.259-.334.56l-.238-.081-.341.574.1.118-.1.134-.149-.064-.122.285.219.123c-.083.159-.228.014-.322.038a.876.876,0,0,0-.364.263c-.1.132-.175.263-.054.371l-.175-.065c-.067.3-.15.3-.242.282s-.2-.046-.358.212c-.062.1.113.154-.062.244l-.107-.229c-.18.041-.256.319-.317.36-.027.016-.213.014-.332.04s-.188.068.035.218l-.136.108c-.1-.279-.242-.2-.42-.047a1.645,1.645,0,0,1-.3.213.462.462,0,0,1-.319.071,2.315,2.315,0,0,1-.122.217c-.147-.2-.334-.186-.561-.126-.263.058-.16.2-.216.216a2.435,2.435,0,0,1-.411.028,1.519,1.519,0,0,1-.258-.017l-.272-.031-.272-.028c-.089-.017-.177-.032-.26-.043a1.8,1.8,0,0,0-.441-.016c-.081,0-.041.221-.2.136l-.049-.259c-.19.043-.3.129-.416.155s-.228-.029-.41-.245l-.149.217q-.016-.175-.026-.349a2.516,2.516,0,0,1-.246.091.473.473,0,0,0-.367-.226c-.037-.009-.075-.018-.112-.031a.736.736,0,0,1-.107-.056.533.533,0,0,1-.186-.2L85.687,67a.29.29,0,0,0-.187-.239.192.192,0,0,0-.26.08.494.494,0,0,0-.33-.364,3.783,3.783,0,0,0-.521-.133l.092-.25a2.159,2.159,0,0,0-.345-.307c-.062-.048-.128-.092-.183-.144a1.983,1.983,0,0,1-.151-.159,3.319,3.319,0,0,1-.366-.563c-.063-.114-.124-.223-.176-.31a1.232,1.232,0,0,0-.108-.188c-.177-.2-.233.22-.26.207l-.133-.222.286-.166a.411.411,0,0,1-.21-.2,2.331,2.331,0,0,1-.1-.284c-.059-.187-.132-.342-.369-.351l.18-.211-.135-.154.13-.137a1.135,1.135,0,0,1-.049-.156l-.181-.033c.23-.129.1-.256.052-.477l-.18.124c-.249-.175.263-.247.205-.5l-.252-.006q.111-.1.222-.194c-.089-.043-.181-.088-.269-.136-.1-.219.2-.173.226-.306A.631.631,0,0,0,82.3,61c-.01-.047-.025-.1-.04-.15a1.423,1.423,0,0,0-.044-.157c-.072-.206-.195-.4-.37-.388.344,0,.442-.028.463-.106a2.411,2.411,0,0,1,.048-.378,1.738,1.738,0,0,1,.152-.288.593.593,0,0,0,.118-.332c0-.06-.2-.148-.141-.308.054-.124.229-.231.344-.366a.532.532,0,0,0,.122-.232.5.5,0,0,0-.034-.323l.172.035.03-.252c.009-.086.034-.164.05-.248.039-.165.073-.338.12-.506q.159.037.314.079a1.063,1.063,0,0,1,.34-.412,1.2,1.2,0,0,0,.375-.373c.03-.057-.076-.156-.045-.189.094-.093.36-.09.469-.187l-.126-.221c.124,0,.256.017.378.028-.012-.29.048-.365.121-.365s.165.072.245.069a5.059,5.059,0,0,0,.514-.23c.257-.093.517-.2.587-.232a2.174,2.174,0,0,0,.366-.241.493.493,0,0,1,.192-.088.357.357,0,0,1,.213.035c.044.022.039.1.165.018l-.116-.14.264-.109c.089-.036.181-.056.272-.085l.025.2a2.742,2.742,0,0,0,.367.075c.111,0,.2-.02.222-.183.061.152.22.151.4.127a.974.974,0,0,1,.525.046l.1-.159a.308.308,0,0,0,.354.153,1.024,1.024,0,0,1,.432-.044c.165.058.218.214.342.267a1.214,1.214,0,0,0,.211.059c.079.025.166.048.254.072a.994.994,0,0,1,.458.212l.181-.091c-.084.107.045.244.212.324.157.1.36.146.443.043a.364.364,0,0,0,.13.279,1.064,1.064,0,0,0,.3.21c.057.029.115.055.171.078l.148.074a.933.933,0,0,1,.166.09.475.475,0,0,1,.043.182.808.808,0,0,0,.086.265,1.279,1.279,0,0,0,.188.228c.04.04.083.082.128.123l.125.139c.085.094.172.189.249.28a1.339,1.339,0,0,1,.166.272,2.07,2.07,0,0,1,.075.42c.022.072.123.306.211.532a1.708,1.708,0,0,0,.194.475q.132-.118.262-.244a1.238,1.238,0,0,0-.056.195.75.75,0,0,0-.024.173.705.705,0,0,0,.107.352l-.179-.04.048.179.029.183.238-.033c.037.174-.193.353-.192.444a3.367,3.367,0,0,0,0,.606c0,.235.03.455.139.514l-.066.13a1.909,1.909,0,0,1,1.32.051q-.115-.149-.23-.29c.144-.013.238.114.245-.118,0-.113.012-.225,0-.336s-.014-.222-.022-.333-.01-.222-.011-.333-.018-.223-.021-.338l.258.061c-.061-.24-.069-.518-.132-.786a2.69,2.69,0,0,0-.214-.753c-.079-.161-.185-.061-.223-.127a.574.574,0,0,1-.079-.244.483.483,0,0,1,.012-.185c.028-.106.085-.175.079-.2a.943.943,0,0,0-.109-.219,1.882,1.882,0,0,0-.2-.275,4.762,4.762,0,0,1-.354-.433c-.067-.121,0-.3-.134-.426l-.2.132-.223-.289.273.025-.015-.229L94.9,56l-.214-.376-.215.132c.017-.142.037-.292.044-.435q-.276-.035-.54-.057l.221-.246c-.209-.192-.526-.2-.73-.4a.559.559,0,0,1-.112-.177.416.416,0,0,0-.121-.157,1.809,1.809,0,0,0-.346-.17c-.065-.027-.13-.054-.19-.082a1.09,1.09,0,0,1-.169-.078c-.152-.091-.075-.361-.325-.444-.144-.047-.157.091-.177.217s-.042.233-.2.159q-.074-.248-.165-.5l-.183-.069.038.189c-.091-.033-.18-.07-.272-.1l.024-.256-.43-.109.056.184c-.149-.008-.294-.024-.441-.023l.1-.235-.729-.16c-.245-.044-.495-.063-.744-.094l-.008.249c-.181.034-.241-.142-.359-.155-.137-.013-.282.211-.464.178,0-.046-.065-.082-.162-.1a1.941,1.941,0,0,0-.363-.006c-.137.008-.28.024-.4.041a2.615,2.615,0,0,0-.274.071c-.188.063-.079.207-.144.219-.148.026-.269-.086-.326-.073-.074.017-.124.185-.189.276s-.143.115-.292-.136c-.115.044-.233.082-.346.131l-.335.159.193.181-.267.218-.2-.273c-.271.041-.076.233-.135.269-.166.109-.333.037-.407.081-.052.031-.072.154-.129.192a3.805,3.805,0,0,0-.548.45l.106.22q-.169-.062-.343-.119l-.286.346-.076-.153a4.885,4.885,0,0,0-.2.555l-.285-.058a3.023,3.023,0,0,1-.133.294,1.856,1.856,0,0,1-.171.292,1.419,1.419,0,0,1-.223.247,1.22,1.22,0,0,1-.257.187l.108.133-.1.159-.167-.039-.1.171c.039.084.089.173.134.258l-.374.4.11.151-.247-.054-.236.621a2.491,2.491,0,0,0-.1.317l-.086.321.135.148-.163.024a2.107,2.107,0,0,0,.022.275l.033.272a.31.31,0,0,0-.24.166.5.5,0,0,0-.047.315,1.089,1.089,0,0,0,.266.586c-.27.176-.308.252-.294.3s.1.087.124.2-.113.213-.114.3a2.933,2.933,0,0,0,.022.421l.046.433c.041.291.12.584.189.884l.15.439a4.046,4.046,0,0,0,.169.438,7.329,7.329,0,0,0,.433.845,8.732,8.732,0,0,0,2.493,2.675c.228.144.448.334.69.5.124.078.25.154.38.224a1.73,1.73,0,0,0,.4.17l.244-.092a3.44,3.44,0,0,0,1.908.611,2.482,2.482,0,0,0,.439.01l.471-.019c.16-.01.323-.038.486-.051s.327-.017.489-.037a5.608,5.608,0,0,0,1.014-.013c.065-.023.018-.16.088-.195.377-.176.694,0,.889-.094q.079-.163.15-.324c.078.173.246.138.438.054s.407-.21.568-.266l-.078-.242c.049.081.24.041.438-.033.05-.018.1-.039.147-.06s.09-.05.13-.073a1.867,1.867,0,0,0,.176-.118c.129-.1.1-.266.22-.361.049-.038.132.1.2.063.136-.087.2-.284.322-.38.186-.141.355-.3.531-.453.087-.08.176-.159.256-.249a3.4,3.4,0,0,0,.219-.3c.287-.435,0-.446.53-.829a.473.473,0,0,0,.135-.168,1.075,1.075,0,0,0,.062-.222,2.157,2.157,0,0,1,.074-.375m-2.268,1.279.3.281c-.176.115-.313-.038-.418-.157Z" transform="translate(68.84 3843.419)" fill="#fff"/><path d="M252.64,88.778a.075.075,0,0,1-.021.018c-.034-.032-.071-.075-.1-.111l.019-.018Z" transform="translate(-82.664 3811.713)" fill="#fff"/><path d="M233.373,69.424c-.033-.053.2.012.091-.063a1.362,1.362,0,0,0-.454-.095l-.088.02c.006-.013.009-.021,0-.026v-.006a.153.153,0,0,0,0-.026c.065.007.135.018.209.032q-.076-.034-.152-.063c.09,0,.153.029.151-.016s-.011-.087-.014-.129a.6.6,0,0,1,0-.132l.156,0a.6.6,0,0,1-.03-.165.265.265,0,0,0-.052-.155c-.025-.031-.1.014-.112,0-.072-.053.091-.16.092-.174,0-.059-.181-.124-.2-.153s.055-.106.013-.12l-.116.093a.515.515,0,0,0-.052-.051c.04-.021.082-.041.123-.058.011-.027.021-.054.031-.081l-.087.064c-.006-.033-.013-.068-.022-.1l-.116.106c.036-.063.068-.127.1-.19-.069.03-.135.063-.2.1l.133-.162c-.052-.034-.16.026-.2-.024-.019-.026,0-.095-.019-.116s-.129-.006-.165-.032.033-.188-.029-.19-.094.316-.152.277c.01-.089.019-.177.023-.267l-.039-.014-.011.1a.378.378,0,0,0-.057-.017l.034-.157-.095-.02,0,.106a.885.885,0,0,0-.1.033l.04-.153-.155-.051c-.053-.015-.106-.026-.159-.039l-.006.158c-.039.027-.05-.089-.075-.1s-.059.126-.1.1c0-.123-.22-.1-.264-.08s0,.118-.018.118c-.031,0-.069-.081-.082-.078-.038.005.018.354-.108.015a1.16,1.16,0,0,0-.151.058l.077.136-.042.075-.1-.185c-.076-.029.009.108,0,.117-.034.026-.1-.045-.114-.037s0,.069-.008.077a.262.262,0,0,0-.114.1l.078.13c-.048-.047-.1-.093-.15-.138l-.048.095-.058-.087a1.33,1.33,0,0,0,.016.194c-.043-.03-.087-.061-.132-.089.006.132-.032.234-.191.219l.076.071-.022.033-.093-.048-.023.04c.037.037.072.073.108.108-.045.017-.093.035-.14.055l.083.064-.145-.058a1.781,1.781,0,0,0-.108.288l.1.051-.1-.009a1.019,1.019,0,0,0,.071.136c-.141-.008-.178.042-.152.1a.306.306,0,0,0,.181.138c-.163.038-.194.06-.182.071s.062.019.075.046-.074.053-.077.074a1.266,1.266,0,0,0,.248.8,2.159,2.159,0,0,0,.606.563c.1.065.182.205.318.218.027-.03.053-.058.078-.088.042.162.282.174.4.176a.834.834,0,0,0,.2-.033.7.7,0,0,1,.211-.032c.055,0,.188.094.233.069.013-.008-.008-.1.006-.11.038-.038.08-.016.119.011s.076.058.1.043c0-.056,0-.113,0-.17.082.221.175.042.263.06l-.059-.145c.052.107.222.063.25.033s-.01-.112.016-.134.066.079.085.075c.04-.008.031-.089.061-.106.045-.028.1-.049.144-.079a.315.315,0,0,0,.122-.116c.061-.113-.077-.166.126-.2.094-.016.016-.165.031-.2.032-.065.116-.134.163-.219s.039-.186-.122-.266m-.814.537c-.034-.032-.071-.075-.1-.111l.019-.018.106.111.074.077c-.025,0-.058-.022-.095-.059" transform="translate(-62.604 3830.549)" fill="#fff"/></g></svg>