<svg xmlns="http://www.w3.org/2000/svg" width="33" height="24" viewBox="0 0 33 24"><g transform="translate(-328.5 -25.5)"><path d="M30,1.5H0A1.5,1.5,0,0,1-1.5,0,1.5,1.5,0,0,1,0-1.5H30A1.5,1.5,0,0,1,31.5,0,1.5,1.5,0,0,1,30,1.5Z" transform="translate(330 27)" fill="#fff"/><path d="M30,1.5H0A1.5,1.5,0,0,1-1.5,0,1.5,1.5,0,0,1,0-1.5H30A1.5,1.5,0,0,1,31.5,0,1.5,1.5,0,0,1,30,1.5Z" transform="translate(330 38)" fill="#fff"/><path d="M30,1.5H0A1.5,1.5,0,0,1-1.5,0,1.5,1.5,0,0,1,0-1.5H30A1.5,1.5,0,0,1,31.5,0,1.5,1.5,0,0,1,30,1.5Z" transform="translate(330 48)" fill="#fff"/></g></svg>